<svg width="180" height="207" viewBox="0 0 180 207" fill="none" xmlns="http://www.w3.org/2000/svg">
<g clip-path="url(#clip0_64_2131)">
<path d="M170.104 0.123291H126.277V70.6307H170.104V0.123291Z" fill="#EBEBEB"/>
<path d="M165.106 67.9856H129.926V3.50781H165.106V67.9856ZM130.876 67.0375H164.156V4.45587H130.876V67.0375Z" fill="#FFE05F"/>
<path d="M150.782 39.5532H144.255V41.5252H150.782V39.5532Z" fill="#455A64"/>
<path d="M111.526 43.118H151.424C152.953 43.118 152.953 40.7478 151.424 40.7478H111.526C109.996 40.7478 109.996 43.118 111.526 43.118Z" fill="#263238"/>
<path d="M111.74 42.6155C111.74 42.6155 111.806 42.7198 111.916 42.9236C112.03 43.1511 112.182 43.4545 112.372 43.829C112.571 44.2224 112.799 44.7107 113.061 45.2795C113.327 45.8484 113.621 46.4978 113.925 47.2231C114.562 48.6641 115.246 50.4133 115.978 52.3663C116.69 54.3241 117.427 56.4951 118.13 58.7942C118.823 61.098 119.413 63.3117 119.907 65.3358C120.377 67.3647 120.771 69.2039 121.033 70.754C121.175 71.5266 121.284 72.233 121.375 72.8539C121.47 73.4749 121.546 74.0058 121.588 74.4467C121.636 74.8638 121.669 75.2004 121.698 75.4564C121.721 75.6886 121.726 75.8071 121.717 75.8119C121.707 75.8119 121.683 75.6934 121.645 75.4658C121.607 75.2146 121.555 74.878 121.489 74.4656C121.427 74.0295 121.341 73.4986 121.232 72.8824C121.132 72.2661 121.009 71.5646 120.857 70.7919C120.572 69.2466 120.163 67.4168 119.683 65.3927C119.18 63.3733 118.586 61.1643 117.892 58.8653C117.189 56.571 116.462 54.4046 115.759 52.4421C115.037 50.4891 114.372 48.74 113.759 47.2894C113.465 46.5594 113.179 45.9053 112.928 45.3364C112.681 44.7628 112.462 44.2698 112.277 43.8717C112.106 43.4877 111.968 43.1796 111.863 42.9473C111.773 42.734 111.726 42.6202 111.735 42.6155H111.74Z" fill="#263238"/>
<path d="M151.424 42.4495C151.424 42.4495 151.376 42.5632 151.267 42.7623C151.143 42.9851 150.977 43.2743 150.773 43.6345C150.554 44.009 150.288 44.4736 150.003 45.0235C149.718 45.5733 149.371 46.1848 149.039 46.8911C148.697 47.588 148.321 48.3559 147.96 49.1997C147.576 50.0292 147.224 50.9441 146.844 51.8969C146.117 53.8215 145.409 55.9688 144.811 58.2679C144.231 60.5717 143.818 62.7949 143.533 64.8332C143.409 65.8524 143.276 66.8242 143.214 67.7343C143.124 68.6444 143.086 69.4977 143.053 70.2751C143 71.0525 143.015 71.7541 143 72.3751C142.986 72.9913 142.996 73.527 143.005 73.9631C143.01 74.3802 143.015 74.712 143.019 74.968C143.019 75.1955 143.019 75.3188 143.005 75.3188C142.991 75.3188 142.986 75.2003 142.967 74.968C142.953 74.7168 142.934 74.3802 142.905 73.9678C142.877 73.5317 142.853 73.0008 142.858 72.3798C142.858 71.7588 142.834 71.0525 142.872 70.2751C142.896 69.4929 142.924 68.6397 143.005 67.7248C143.057 66.8099 143.181 65.8334 143.3 64.8095C143.575 62.7617 143.984 60.5243 144.568 58.2157C145.167 55.9072 145.889 53.7504 146.625 51.8258C147.015 50.8683 147.376 49.9581 147.77 49.1238C148.136 48.28 148.521 47.5169 148.877 46.8248C149.219 46.1232 149.576 45.5117 149.875 44.9713C150.169 44.4262 150.45 43.9711 150.683 43.6014C150.906 43.2458 151.082 42.9662 151.219 42.7481C151.343 42.5537 151.414 42.4542 151.419 42.4589L151.424 42.4495Z" fill="#263238"/>
<path d="M137.233 42.1603C137.285 42.2077 133.209 46.6399 128.135 52.0628C123.061 57.4857 118.909 61.8421 118.857 61.7947C118.804 61.7473 122.881 57.3151 127.955 51.8922C133.028 46.4692 137.181 42.1129 137.233 42.1603Z" fill="#263238"/>
<path d="M144.34 59.7089C144.34 59.7089 144.164 59.946 143.818 60.3442C143.442 60.7708 142.943 61.3396 142.34 62.027C141.076 63.4822 139.376 65.4353 137.499 67.5968C135.608 69.7726 133.879 71.7304 132.601 73.1193C131.959 73.8161 131.437 74.3707 131.066 74.75C130.696 75.1292 130.487 75.333 130.472 75.3188C130.458 75.3093 130.648 75.0818 130.995 74.6836C131.37 74.257 131.869 73.6881 132.473 73.0008C133.736 71.5455 135.437 69.5925 137.318 67.4309C139.209 65.2551 140.939 63.2974 142.217 61.9085C142.858 61.2116 143.38 60.657 143.751 60.2778C144.122 59.8986 144.331 59.6947 144.345 59.7089H144.34Z" fill="#263238"/>
<path d="M123.432 42.6153C123.432 42.6153 123.341 42.7575 123.147 42.9898C122.952 43.2173 122.667 43.5444 122.306 43.9426C121.588 44.739 120.586 45.834 119.469 47.0285C118.353 48.2231 117.327 49.2944 116.581 50.0623C116.206 50.4463 115.902 50.7544 115.683 50.963C115.465 51.1716 115.341 51.2806 115.331 51.2711C115.317 51.2616 115.422 51.1289 115.617 50.8966C115.811 50.6691 116.096 50.342 116.457 49.9438C117.175 49.1475 118.177 48.0525 119.294 46.8579C120.41 45.6633 121.436 44.592 122.182 43.8241C122.558 43.4401 122.862 43.132 123.08 42.9234C123.294 42.7149 123.422 42.6058 123.432 42.6153Z" fill="#263238"/>
<path d="M150.436 42.0323C150.436 42.0323 150.35 42.1508 150.165 42.3594C149.965 42.5822 149.69 42.8809 149.348 43.2601C148.63 44.0327 147.585 45.1467 146.279 46.5119C143.67 49.2424 140.031 52.973 136.002 57.0876C131.974 61.1927 128.33 64.9043 125.669 67.6111C124.363 68.9478 123.299 70.0334 122.543 70.806C122.187 71.171 121.902 71.4602 121.693 71.6735C121.498 71.8679 121.389 71.9722 121.384 71.9627C121.379 71.9579 121.47 71.8442 121.655 71.6356C121.854 71.4128 122.13 71.1142 122.472 70.7349C123.189 69.9623 124.235 68.8483 125.541 67.4831C128.149 64.7527 131.788 61.022 135.822 56.9074C139.851 52.8071 143.495 49.0907 146.15 46.3839C147.457 45.0472 148.521 43.9616 149.276 43.189C149.633 42.824 149.918 42.5348 150.127 42.3215C150.321 42.1271 150.431 42.0229 150.436 42.0323Z" fill="#263238"/>
<path d="M133.888 75.314C133.888 75.314 133.646 75.1433 133.237 74.7973C132.829 74.4512 132.245 73.9488 131.527 73.3136C130.092 72.0526 128.126 70.2892 126.007 68.2794C123.888 66.2742 122.03 64.3923 120.719 62.9986C120.063 62.3018 119.541 61.7282 119.194 61.3253C118.842 60.9224 118.652 60.6949 118.667 60.6854C118.681 60.6759 118.89 60.8797 119.265 61.2589C119.669 61.6714 120.201 62.2165 120.847 62.8754C122.187 64.2359 124.064 66.0941 126.178 68.0945C128.292 70.0996 130.24 71.882 131.646 73.1761C132.325 73.8066 132.881 74.3233 133.304 74.7167C133.694 75.0817 133.903 75.2903 133.893 75.3045L133.888 75.314Z" fill="#263238"/>
<path d="M142.972 71.3512C142.972 71.3512 142.858 71.2706 142.658 71.0952C142.445 70.9056 142.155 70.6449 141.789 70.3225C141.048 69.6352 139.993 68.6255 138.71 67.3551C136.145 64.8143 132.667 61.2401 128.871 57.2535C125.075 53.2621 121.679 49.6168 119.232 46.9575C118.03 45.635 117.051 44.5637 116.353 43.8005C116.03 43.4355 115.773 43.1463 115.583 42.9283C115.407 42.7292 115.322 42.6201 115.327 42.6154C115.331 42.6107 115.431 42.7055 115.621 42.8951C115.821 43.1037 116.087 43.3833 116.424 43.7341C117.132 44.4831 118.134 45.5402 119.36 46.839C121.854 49.4746 125.27 53.0868 129.047 57.0828C132.843 61.0694 136.297 64.6626 138.829 67.2319C140.093 68.5165 141.133 69.5451 141.851 70.2514C142.202 70.588 142.483 70.8582 142.687 71.0573C142.877 71.2422 142.972 71.3464 142.967 71.3512H142.972Z" fill="#263238"/>
<path d="M144.136 60.6427C144.136 60.6427 144.055 60.5906 143.913 60.4721C143.751 60.3346 143.552 60.1592 143.305 59.9459C142.782 59.4813 142.041 58.7893 141.148 57.9123C139.352 56.1679 136.967 53.665 134.382 50.8587C131.798 48.0477 129.503 45.4642 127.841 43.5966C127.028 42.6769 126.368 41.9232 125.883 41.3734C125.669 41.1269 125.494 40.923 125.356 40.7619C125.237 40.6196 125.18 40.5438 125.185 40.5391C125.19 40.5343 125.261 40.6007 125.394 40.7287C125.541 40.8804 125.726 41.07 125.954 41.307C126.453 41.8426 127.137 42.5774 127.969 43.4781C129.674 45.3457 131.998 47.8865 134.563 50.6928C137.147 53.4991 139.513 56.0162 141.271 57.7891C142.145 58.6802 142.872 59.3865 143.371 59.8748C143.604 60.1023 143.799 60.2872 143.951 60.4342C144.079 60.5621 144.145 60.638 144.141 60.6427H144.136Z" fill="#263238"/>
<path d="M146.901 50.1573C146.853 50.2047 145.381 48.7163 143.618 46.8391C141.855 44.9572 140.463 43.3976 140.516 43.3502C140.563 43.3028 142.036 44.7913 143.799 46.6732C145.561 48.5551 146.953 50.1147 146.901 50.1621V50.1573Z" fill="#263238"/>
<path d="M180.005 29.6365H170.104V39.5153H180.005V29.6365Z" fill="#EBEBEB"/>
<path d="M170.104 70.6307C170.104 70.6307 169.847 70.6354 169.33 70.6402C168.812 70.6402 168.047 70.6449 167.044 70.6496C165.03 70.6544 162.07 70.6639 158.274 70.6733C150.659 70.6876 139.694 70.7018 126.273 70.7255H126.178V70.6307C126.168 51.4845 126.163 26.8776 126.149 0.127988V0H126.273C141.808 0 156.621 0.00474031 170.099 0.00948063H170.213V0.123248C170.189 20.8432 170.17 38.4819 170.156 50.9441C170.142 57.1587 170.132 62.0839 170.128 65.4637C170.123 67.1418 170.118 68.4359 170.113 69.3129C170.113 69.7442 170.109 70.0761 170.109 70.2989C170.109 70.5216 170.104 70.6307 170.104 70.6307C170.104 70.6307 170.104 70.5122 170.099 70.2894C170.099 70.0618 170.099 69.7253 170.094 69.2892C170.094 68.4075 170.085 67.1039 170.08 65.4163C170.071 62.0317 170.061 57.1018 170.052 50.873C170.037 38.425 170.018 20.8147 169.995 0.127988L170.109 0.241756C156.631 0.241756 141.817 0.246496 126.282 0.251237L126.406 0.127988C126.396 26.8823 126.387 51.4893 126.377 70.6354L126.282 70.5406C139.68 70.5643 150.621 70.5785 158.222 70.5928C162.028 70.6022 164.992 70.6117 167.011 70.6165C168.018 70.6212 168.788 70.6259 169.315 70.6259C169.838 70.6259 170.109 70.6354 170.109 70.6354L170.104 70.6307Z" fill="#263238"/>
<path d="M167.377 70.6449C167.311 70.6449 167.254 54.8549 167.254 35.3865C167.254 15.918 167.311 0.123291 167.377 0.123291C167.444 0.123291 167.501 15.9085 167.501 35.3865C167.501 54.8644 167.444 70.6449 167.377 70.6449Z" fill="#263238"/>
<path d="M45.7838 23.5025C45.7838 23.5025 44.5296 22.8246 42.6055 22.5544C40.6814 22.2842 38.3487 22.3743 37.3178 22.1515C36.2868 21.9287 39.5127 29.2146 39.5127 29.2146L44.9619 28.7974L45.7838 23.5025Z" fill="#AE7461"/>
<path d="M44.1163 28.3896L45.171 22.9382C45.171 22.9382 68.1413 26.7494 72.3553 28.3896C76.5693 30.0297 74.7355 42.4067 73.2723 48.2657C71.619 54.8879 70.322 65.3546 70.322 65.3546C70.322 65.3546 59.9129 54.9259 59.9746 54.5988C60.0412 54.2717 64.7777 37.3914 64.4499 36.4718C64.1221 35.5522 44.1116 28.3943 44.1116 28.3943L44.1163 28.3896Z" fill="#AE7461"/>
<g opacity="0.3">
<path d="M63.5473 41.5581L60.7206 51.8683C62.7587 51.508 64.3502 49.5787 64.7065 47.5451C65.0629 45.5115 64.4547 43.4163 63.5473 41.5581Z" fill="black"/>
</g>
<path d="M68.9727 33.3433C69.0107 33.4049 68.0415 34.0543 66.9061 34.9266C65.7659 35.794 64.8822 36.5572 64.83 36.5051C64.7825 36.4577 65.5996 35.6092 66.7541 34.7322C67.9038 33.8505 68.9394 33.2864 68.9727 33.3433Z" fill="#6F4439"/>
<path d="M38.9666 30.1048C40.4235 23.4818 36.2237 16.9344 29.5861 15.4806C22.9484 14.0269 16.3864 18.2174 14.9294 24.8403C13.4725 31.4633 17.6723 38.0108 24.3099 39.4645C30.9476 40.9182 37.5096 36.7277 38.9666 30.1048Z" fill="#FF725E"/>
<path d="M18.818 23.4788C18.4141 23.3792 17.9961 23.3508 17.6017 23.3935C17.578 23.3935 17.5542 23.3935 17.5257 23.4029L17.4545 23.4172C17.407 23.4266 17.3595 23.4361 17.3072 23.4409C17.2122 23.4646 17.1172 23.4883 17.0269 23.5167C16.8416 23.5736 16.6706 23.6494 16.509 23.7348C16.3475 23.8201 16.2002 23.9196 16.0577 24.0239C15.9199 24.1282 15.7917 24.242 15.6777 24.3558C15.2406 24.7871 14.946 25.2659 14.7417 25.702C14.6942 26.0196 14.661 26.3419 14.642 26.669C14.737 26.4415 14.851 26.195 14.9888 25.9343C15.1028 25.721 15.2358 25.4982 15.3974 25.2801C15.5589 25.0621 15.7442 24.844 15.9627 24.6449C16.072 24.5454 16.1907 24.4506 16.3143 24.3605C16.4425 24.2752 16.5756 24.1946 16.7181 24.1235C16.8606 24.0571 17.0079 23.9955 17.1647 23.9481C17.2454 23.9291 17.3214 23.9102 17.4022 23.8912C17.445 23.8865 17.483 23.877 17.5257 23.8722L17.5875 23.8628C17.5875 23.8628 17.6302 23.8628 17.6493 23.8628C17.9866 23.8343 18.3381 23.8628 18.6897 23.9623C18.7324 23.9718 18.7705 23.986 18.8132 24.0002C18.8797 23.8438 18.9462 23.6874 19.0175 23.5309C18.951 23.512 18.8845 23.493 18.818 23.4741V23.4788Z" fill="#263238"/>
<path d="M19.7207 24.422C20.3858 24.8296 20.9416 25.4601 21.4072 26.1901C21.8728 26.9249 22.2529 27.7639 22.6472 28.6314C23.0367 29.4941 23.4073 30.3474 23.7874 31.1674C23.9774 31.5751 24.1674 31.978 24.3622 32.3667C24.4572 32.5611 24.557 32.7507 24.6568 32.9403C24.7565 33.1299 24.8563 33.3148 24.9561 33.4949C25.759 34.9549 26.6664 36.1779 27.5595 37.0786C28.448 37.984 29.3174 38.5623 29.9397 38.8894C30.0917 38.9747 30.239 39.0411 30.3625 39.0932C30.4243 39.1217 30.4813 39.1454 30.5336 39.1691C30.5431 39.1691 30.5953 39.188 30.6096 39.1928C30.6666 39.1738 30.7236 39.1596 30.7854 39.1406C30.7854 39.1406 30.7379 39.1217 30.7331 39.1217C30.6951 39.098 30.6476 39.0743 30.6001 39.0458C30.5526 39.0174 30.5003 38.9842 30.4433 38.9463C30.3293 38.8752 30.1963 38.7993 30.0537 38.6998C29.4789 38.3206 28.6807 37.7138 27.8541 36.7989C27.0275 35.8888 26.1818 34.6847 25.4169 33.2389C25.3171 33.0588 25.2269 32.8739 25.1319 32.6891C25.0416 32.4995 24.9418 32.3146 24.8516 32.1202C24.6663 31.7363 24.481 31.3381 24.2957 30.9304C23.9299 30.1103 23.5546 29.2618 23.165 28.3943C22.7707 27.5269 22.3811 26.6689 21.8775 25.8867C21.7493 25.6924 21.621 25.5028 21.4785 25.3226C21.412 25.2326 21.3359 25.1425 21.2647 25.0572C21.1887 24.9718 21.1174 24.8865 21.0366 24.8059C20.8799 24.64 20.7136 24.4883 20.5425 24.3461C20.4523 24.2798 20.3668 24.2086 20.2765 24.147C20.229 24.1138 20.1862 24.0807 20.1387 24.0522C20.0912 24.0238 20.0437 23.9953 20.001 23.9669C19.8537 23.8816 19.7064 23.801 19.5544 23.7346C19.4831 23.891 19.4118 24.0522 19.3453 24.2134C19.4736 24.275 19.6019 24.3461 19.7254 24.422H19.7207Z" fill="#263238"/>
<path d="M37.7121 33.2579C37.6788 33.2058 37.6408 33.1442 37.6028 33.0826C37.5648 33.0209 37.5173 32.9546 37.4698 32.8882C37.3748 32.7507 37.2703 32.599 37.1562 32.4331C37.0375 32.2672 36.9045 32.0966 36.7619 31.907C36.6242 31.7173 36.4626 31.523 36.2963 31.3144C36.1301 31.1058 35.9448 30.8878 35.7548 30.665C35.5647 30.4375 35.3509 30.2099 35.1371 29.9682C35.0279 29.8449 34.9138 29.7264 34.7951 29.6079C34.6763 29.4847 34.5623 29.3614 34.4388 29.2334C34.3152 29.1102 34.187 28.9822 34.0587 28.8589C33.9922 28.7973 33.9304 28.7309 33.8639 28.6646C33.7974 28.603 33.7309 28.5366 33.6644 28.475C33.5266 28.347 33.3936 28.2142 33.2511 28.0863C33.1085 27.9583 32.9613 27.8303 32.8187 27.6976C32.6715 27.5648 32.5194 27.4368 32.3674 27.3088C32.2154 27.1809 32.0586 27.0434 31.8971 26.9154C31.7355 26.7874 31.574 26.6547 31.4125 26.522C31.2462 26.394 31.0752 26.266 30.9041 26.1333C30.22 25.6166 29.4884 25.1093 28.7235 24.6211C27.9539 24.1376 27.1842 23.692 26.4241 23.2938C26.2341 23.1943 26.044 23.0995 25.8587 22.9999C25.6687 22.9098 25.4834 22.8198 25.2934 22.7297C25.1081 22.6396 24.9228 22.5543 24.7375 22.4737C24.5523 22.3931 24.3717 22.3078 24.1912 22.232C24.0107 22.1561 23.8301 22.0803 23.6544 22.0044C23.4786 21.9333 23.298 21.867 23.127 21.7959C23.0415 21.7627 22.956 21.7295 22.8705 21.6963C22.7849 21.6631 22.6994 21.6347 22.6139 21.6015C22.4429 21.5399 22.2766 21.4783 22.1103 21.4214C21.944 21.3645 21.7825 21.3124 21.621 21.2602C21.4595 21.2081 21.3027 21.1512 21.1459 21.1085C21.1126 21.099 21.0841 21.0896 21.0509 21.0801C21.0509 21.0801 21.0461 21.0896 21.0414 21.0943C21.0081 21.1512 20.9701 21.2033 20.9369 21.2602C20.8941 21.3266 20.8514 21.3929 20.8086 21.4593C20.8751 21.483 20.9416 21.5067 21.0081 21.5257C21.1602 21.5778 21.3122 21.6347 21.469 21.6916C21.6257 21.7485 21.7873 21.8053 21.9488 21.867C22.1103 21.9286 22.2719 21.995 22.4381 22.0613C22.5189 22.0945 22.6044 22.1277 22.6899 22.1609C22.7754 22.1941 22.8562 22.232 22.9417 22.2652C23.1128 22.3363 23.2838 22.4074 23.4596 22.4832C23.6306 22.5591 23.8064 22.6396 23.9869 22.7155C24.1674 22.7913 24.3432 22.8767 24.5238 22.962C24.7043 23.0473 24.8848 23.1279 25.0653 23.2227C25.2459 23.3128 25.4312 23.4028 25.6164 23.4976C25.8017 23.5924 25.987 23.692 26.1723 23.7915C26.9134 24.1897 27.6736 24.6306 28.4289 25.1046C29.1843 25.5834 29.9017 26.0811 30.5811 26.5836C30.7521 26.7116 30.9184 26.8348 31.0847 26.9581C31.2462 27.0861 31.4077 27.214 31.5693 27.3373C31.7308 27.4605 31.8828 27.5885 32.0348 27.7165C32.1869 27.8445 32.3436 27.963 32.4862 28.0957C32.6334 28.2237 32.776 28.347 32.9232 28.4702C33.0658 28.5935 33.2035 28.7215 33.3413 28.8447C33.4078 28.9063 33.4791 28.968 33.5456 29.0296C33.6121 29.0912 33.6786 29.1528 33.7404 29.2145C33.8687 29.3377 33.9969 29.4562 34.1252 29.5747C34.2487 29.6932 34.3675 29.8165 34.4863 29.9302C34.605 30.0487 34.7238 30.1578 34.8331 30.2763C35.0564 30.5086 35.2749 30.7219 35.4697 30.9399C35.6692 31.1532 35.864 31.3571 36.035 31.5562C36.2108 31.7553 36.3819 31.9354 36.5291 32.1155C36.6812 32.2909 36.8237 32.4568 36.9567 32.6085C37.085 32.7602 37.2038 32.9024 37.3083 33.0304C37.3605 33.092 37.4128 33.1537 37.4603 33.2105C37.5078 33.2674 37.5506 33.3196 37.5933 33.367C37.6218 33.4002 37.6646 33.4665 37.6883 33.495C37.7169 33.4428 37.7501 33.3812 37.7786 33.329C37.7691 33.3148 37.7359 33.2816 37.7264 33.2627L37.7121 33.2579Z" fill="#263238"/>
<path d="M20.4808 20.9095C20.4 20.8858 20.3192 20.862 20.2385 20.8431C19.9534 20.7672 19.6826 20.6914 19.4213 20.6298C19.1648 20.5681 18.9177 20.5065 18.6897 20.4591C18.4617 20.4117 18.2479 20.3643 18.0483 20.3311C17.8488 20.298 17.6683 20.2695 17.5067 20.2411C17.426 20.2268 17.35 20.2174 17.2739 20.2031C17.2027 20.1937 17.1314 20.1842 17.0697 20.1794C17.0554 20.1794 17.0459 20.1794 17.0364 20.1794C17.0031 20.2268 16.9699 20.2742 16.9319 20.3217C16.9651 20.3311 16.9984 20.3406 17.0364 20.3501C17.0982 20.3643 17.1647 20.3833 17.2359 20.4022C17.3072 20.4212 17.3785 20.4402 17.4592 20.4639C17.616 20.5065 17.7918 20.5539 17.9866 20.6013C18.1766 20.6535 18.3856 20.7151 18.6089 20.7767C18.8322 20.8336 19.0698 20.9095 19.3216 20.9853C19.5734 21.0564 19.8394 21.1465 20.115 21.2365C20.1577 21.2508 20.1957 21.265 20.2385 21.2745C20.3097 21.1654 20.3762 21.0611 20.4428 20.9569C20.4523 20.9426 20.457 20.9332 20.4665 20.9189L20.4808 20.9095Z" fill="#263238"/>
<path d="M22.7517 18.8712C22.804 18.8901 22.8562 18.9091 22.9085 18.9233C23.0367 18.966 23.165 18.9992 23.298 19.0418C23.4311 19.0797 23.5688 19.1129 23.7066 19.1508C24.2625 19.2836 24.8658 19.3879 25.5024 19.459C26.1391 19.5301 26.8089 19.568 27.4978 19.5917C28.1867 19.6154 28.8993 19.6249 29.6262 19.6438C29.9872 19.6533 30.3435 19.6675 30.6951 19.6818C31.0467 19.7007 31.3887 19.7244 31.726 19.7529C32.4007 19.8145 33.042 19.914 33.6454 20.0468C34.2487 20.1842 34.8046 20.3596 35.3082 20.5729C35.8118 20.7863 36.2583 21.0328 36.6432 21.2887C37.028 21.5447 37.3558 21.8102 37.6218 22.0661C37.6884 22.1278 37.7501 22.1941 37.8071 22.2558C37.8356 22.2889 37.8689 22.3174 37.8926 22.3458C37.9211 22.379 37.9449 22.4074 37.9734 22.4359C38.0257 22.4975 38.0779 22.5497 38.1207 22.6065C38.1634 22.6634 38.2062 22.7156 38.249 22.7677C38.3155 22.8483 38.3677 22.9241 38.42 22.9952C38.2822 22.6445 38.1302 22.3079 37.9639 21.9713C37.9259 21.9287 37.8926 21.8813 37.8499 21.8386C37.5933 21.5494 37.2655 21.2413 36.876 20.9474C36.4816 20.6535 36.0208 20.3738 35.503 20.1274C34.9804 19.8856 34.396 19.677 33.7689 19.5206C33.1418 19.3642 32.4767 19.2504 31.7831 19.1793C31.4362 19.1414 31.0847 19.1177 30.7236 19.094C30.3673 19.075 30.0015 19.0608 29.6357 19.0513C28.904 19.0323 28.1914 19.0276 27.5073 19.0134C26.8232 18.9992 26.1676 18.9707 25.5499 18.9138C24.9276 18.8569 24.3432 18.7764 23.8064 18.6673C23.5546 18.6152 23.3075 18.5583 23.0748 18.4919C23.051 18.5156 23.032 18.5393 23.0082 18.563C22.918 18.6579 22.8325 18.7527 22.7469 18.8522L22.7517 18.8712Z" fill="#263238"/>
<path d="M22.362 18.2691C22.153 18.1791 21.9677 18.0795 21.8062 17.9657C21.6447 17.852 21.5021 17.724 21.3976 17.5913C21.1838 17.3211 21.0841 17.0224 21.0508 16.7807C21.0461 16.7427 21.0413 16.7048 21.0413 16.6716C20.97 16.7096 20.8988 16.7522 20.8275 16.7901C20.8275 17.0746 20.9083 17.4301 21.1363 17.7761C21.3691 18.1222 21.7397 18.4161 22.191 18.6389C22.2053 18.6436 22.2195 18.6531 22.2338 18.6578C22.3335 18.5488 22.4333 18.4398 22.5331 18.3355C22.4761 18.3118 22.419 18.2928 22.362 18.2691Z" fill="#263238"/>
<path d="M21.0272 21.0896C21.0272 21.0896 21.0319 21.0801 21.0367 21.0754C21.0699 21.028 21.1032 20.9759 21.1412 20.9284C21.6495 20.1842 22.1911 19.4969 22.7517 18.8712C22.8372 18.7716 22.9275 18.6768 23.013 18.582C23.0368 18.5583 23.0558 18.5346 23.0795 18.5109C23.1365 18.4493 23.1983 18.3829 23.2553 18.3213C23.3361 18.2359 23.4216 18.1506 23.5023 18.07C23.6686 17.9041 23.8349 17.7477 24.0012 17.596C24.3337 17.2926 24.6711 17.0129 25.0131 16.7665C25.3552 16.52 25.702 16.3066 26.044 16.1265C26.1296 16.0791 26.2151 16.0412 26.3006 15.9985C26.3861 15.9606 26.4716 15.9227 26.5571 15.8895C26.6427 15.8563 26.7282 15.8279 26.8137 15.7947C26.8992 15.7662 26.9847 15.7425 27.0702 15.7141C27.417 15.6146 27.7496 15.5435 28.0727 15.4866C28.3957 15.4344 28.6998 15.3918 28.9848 15.3633C28.9991 15.3633 29.0133 15.3633 29.0228 15.3633C28.5477 15.2827 28.0679 15.2259 27.5786 15.2021C27.379 15.2353 27.1747 15.278 26.9657 15.3301C26.8754 15.3538 26.7804 15.3823 26.6902 15.406C26.5951 15.4344 26.5049 15.4676 26.4099 15.496C26.3148 15.5292 26.2198 15.5672 26.1248 15.6098C26.0345 15.6525 25.9395 15.6904 25.8445 15.7378C25.4739 15.9179 25.1034 16.136 24.7376 16.3872C24.3717 16.6385 24.0154 16.9229 23.6639 17.231C23.4881 17.3874 23.3123 17.5486 23.1413 17.7145C23.0558 17.7998 22.9702 17.8852 22.8847 17.9705C22.7992 18.0558 22.7185 18.1459 22.6329 18.2359C22.5997 18.2739 22.5617 18.3118 22.5284 18.345C22.4287 18.4493 22.3289 18.5583 22.2291 18.6673C21.6923 19.2646 21.1697 19.914 20.6803 20.6203C20.6423 20.6772 20.6043 20.7294 20.5663 20.7862C20.5378 20.8289 20.5093 20.8716 20.4808 20.919C20.4713 20.9332 20.4666 20.9427 20.4571 20.9569C20.3858 21.0612 20.3193 21.1702 20.248 21.2745C20.248 21.2792 20.2385 21.2887 20.2338 21.2934C20.1577 21.4072 20.0912 21.5257 20.02 21.6442C19.9487 21.7627 19.8774 21.8812 19.8062 21.9998C19.7397 22.123 19.6732 22.2415 19.6067 22.3648C19.5734 22.4264 19.5401 22.488 19.5069 22.5496C19.4736 22.6113 19.4404 22.6729 19.4071 22.7345C19.3454 22.8578 19.2836 22.9857 19.2171 23.1137C19.1838 23.1754 19.1553 23.2417 19.1221 23.3033C19.0936 23.3697 19.0651 23.4313 19.0365 23.4977C19.0318 23.5119 19.0223 23.5261 19.0175 23.5404C18.9463 23.6968 18.8798 23.8532 18.8133 24.0097C18.4474 24.8771 18.1529 25.7541 17.9344 26.6216C17.6731 27.6597 17.521 28.6883 17.4688 29.6743C17.4118 30.6556 17.4498 31.5942 17.5495 32.4664C17.6541 33.3338 17.8203 34.135 18.0199 34.8507C18.1814 35.4575 18.3809 36.0026 18.5805 36.4862C18.7515 36.6426 18.9273 36.799 19.1078 36.946C19.0651 36.8417 19.0223 36.7327 18.9795 36.6236C18.7848 36.0832 18.571 35.4575 18.4094 34.7512C18.2432 34.0449 18.1006 33.2675 18.0199 32.419C17.9439 31.5704 17.9249 30.6603 17.9961 29.7122C18.0626 28.7594 18.2194 27.7687 18.4807 26.7638C18.6992 25.92 18.989 25.0667 19.3501 24.223C19.4166 24.0618 19.4879 23.9054 19.5591 23.7442C19.5591 23.7442 19.5591 23.7395 19.5591 23.7347C19.5876 23.6731 19.6162 23.6115 19.6447 23.5451C19.6732 23.4835 19.7064 23.4219 19.7349 23.3602C19.7967 23.237 19.8584 23.1137 19.9155 22.9952C19.944 22.9336 19.9772 22.872 20.0105 22.8151C20.0437 22.7535 20.077 22.6966 20.1055 22.635C20.172 22.5165 20.2338 22.3979 20.3003 22.2794C20.3668 22.1657 20.438 22.0472 20.5046 21.9334C20.5758 21.8196 20.6376 21.7011 20.7088 21.5921C20.7374 21.5494 20.7659 21.502 20.7944 21.4594C20.8371 21.393 20.8799 21.3266 20.9226 21.2603C20.9559 21.2034 20.9939 21.1512 21.0272 21.0944V21.0896Z" fill="#263238"/>
<path d="M40.6577 111.151C40.6577 111.151 56.9056 111.554 64.792 110.212C72.6784 108.871 74.4647 107.344 74.4647 107.344C74.4647 107.344 75.8472 105.51 75.4624 103.78C75.0776 102.054 73.5383 100.229 73.2485 100.035C72.9587 99.8452 40.653 111.146 40.653 111.146L40.6577 111.151Z" fill="#455A64"/>
<path d="M22.1389 139.92C22.1389 139.92 30.5859 148.448 33.2891 152.003C35.9924 155.553 43.8693 165.617 47.8457 166.262C51.8222 166.911 53.7463 166.366 55.8889 161.811C58.0315 157.26 62.4546 145.713 62.4546 145.713L50.1546 142.456L48.3113 148.471C48.3113 148.471 38.9902 143.21 32.9281 138.54L26.866 133.876L22.1389 139.92Z" fill="#AE7461"/>
<path d="M71.5715 110.506C70.5595 120.494 66.5831 133.449 67.5808 141.461C68.0511 145.248 66.0842 148.064 66.0842 148.064L50.0359 143.376L56.0029 102.893L72.6974 101.523L71.5715 110.506Z" fill="#FFE05F"/>
<path d="M40.9902 138.64C40.9902 138.64 39.527 154.757 39.432 155.757C39.3417 156.758 27.3221 160.559 22.3099 168.158C17.2978 175.757 8.40894 183.147 8.40894 183.147L13.2073 189.044C13.2073 189.044 47.1331 166.518 50.872 163.261C54.6109 160.005 55.3473 157.511 55.9981 154.705C56.611 152.055 58.3403 141.138 58.3403 141.138L40.9902 138.645V138.64Z" fill="#AE7461"/>
<path d="M44.4346 102.092C44.4346 102.092 39.1279 110.999 38.3393 116.64C37.5554 122.281 37.1421 138.834 37.1421 138.834L60.5733 146.035L63.077 127.998C63.077 127.998 70.1937 112.725 70.2792 111.781C70.3647 110.838 70.379 101.922 70.379 101.922L44.4346 102.092Z" fill="#FFE05F"/>
<path d="M46.9097 107.648L43.0948 108.364C41.0662 119.029 40.9332 128.7 40.8524 139.659L44.4631 140.92C44.5438 129.961 44.8811 118.318 46.9097 107.653V107.648Z" fill="white"/>
<g opacity="0.3">
<path d="M40.9998 108.667L39.8358 111.44C39.9071 111.255 61.9652 107.558 65.8942 107.269C69.8231 106.979 71.8042 108.639 71.8042 108.639L72.4361 104.386L63.9178 99.6035L43.1424 106.084L40.9998 108.662V108.667Z" fill="black"/>
</g>
<path d="M37.1468 138.834C37.1658 138.768 42.4297 140.328 48.8956 142.314C55.3663 144.3 60.5969 145.968 60.5732 146.03C60.5542 146.096 55.2902 144.537 48.8196 142.551C42.3489 140.565 37.123 138.901 37.142 138.834H37.1468Z" fill="#263238"/>
<path d="M57.5802 146.338C57.5802 146.338 57.5802 146.315 57.5802 146.272V146.262C57.5802 146.262 57.5517 146.253 57.6087 146.267V146.286L57.5992 146.329C57.5945 146.362 57.5897 146.4 57.585 146.438C57.5517 146.632 57.5137 146.869 57.4614 147.158C57.3474 147.784 57.1764 148.685 56.9483 149.794C56.7203 150.908 56.4448 152.226 56.1122 153.69C55.7749 155.151 55.4091 156.762 54.8865 158.421C54.6062 159.251 54.2214 160.028 53.751 160.706C53.2759 161.384 52.7248 161.962 52.1737 162.479C51.0573 163.503 49.9218 164.257 48.9717 164.878C48.0358 165.475 47.2709 165.968 46.7055 166.328C46.4585 166.489 46.2542 166.617 46.0927 166.722C45.9501 166.812 45.8741 166.854 45.8694 166.845C45.8646 166.84 45.9311 166.783 46.0642 166.679C46.1972 166.579 46.392 166.428 46.6533 166.243C47.1711 165.873 47.936 165.361 48.8767 164.726C49.8126 164.086 50.929 163.323 52.0217 162.308C52.5586 161.796 53.0954 161.223 53.5562 160.564C54.0123 159.9 54.3829 159.151 54.6584 158.341C55.1715 156.701 55.5468 155.089 55.8937 153.634C56.2262 152.183 56.5255 150.865 56.7821 149.751C57.0244 148.671 57.2239 147.784 57.3712 147.13C57.4377 146.845 57.4947 146.608 57.5375 146.419C57.547 146.381 57.5565 146.348 57.566 146.31L57.5755 146.267V146.248C57.5755 146.248 57.5517 146.243 57.6087 146.248V146.258C57.5945 146.3 57.585 146.319 57.5802 146.319V146.338Z" fill="#6F4439"/>
<path d="M40.8525 140.195C40.8525 140.195 40.862 140.29 40.8525 140.465C40.8383 140.669 40.824 140.92 40.805 141.233C40.7527 141.935 40.6767 142.887 40.5865 144.049C40.3774 146.457 40.0924 149.723 39.7788 153.33C39.7028 154.165 39.6268 154.98 39.5555 155.767V155.828L39.5033 155.857C36.8808 157.459 34.5291 158.744 32.8378 159.673C31.9922 160.133 31.3081 160.488 30.833 160.72C30.5954 160.834 30.4101 160.924 30.2819 160.976C30.1536 161.029 30.0871 161.052 30.0823 161.047C30.0776 161.033 30.3341 160.901 30.795 160.645C31.2843 160.37 31.9494 159.995 32.7618 159.535C34.4246 158.578 36.7715 157.255 39.3702 155.658L39.318 155.748C39.3892 154.961 39.4605 154.146 39.5365 153.311C39.8786 149.704 40.1874 146.443 40.4154 144.034C40.5389 142.873 40.6387 141.925 40.71 141.223C40.748 140.915 40.7765 140.664 40.8002 140.46C40.824 140.285 40.843 140.195 40.8478 140.195H40.8525Z" fill="#6F4439"/>
<path d="M6.43262 185.034C6.43262 185.034 9.22136 182.512 10.6941 181.014C12.1621 179.516 20.5331 170.419 20.5331 170.419L27.7021 179.34C27.7021 179.34 17.9962 185.825 17.0888 186.446C15.654 187.432 12.661 189.347 12.661 189.347L7.93863 191.675L6.43262 185.034Z" fill="#263238"/>
<path d="M8.84127 182.711C8.84127 182.711 4.86481 182.426 3.73411 183.46C2.60341 184.493 0.422772 183.858 0.0664582 184.493C-0.289855 185.128 0.817092 189.688 1.52497 190.911C2.23284 192.134 4.11893 193.784 4.59876 194.732C5.0786 195.68 4.49425 195.955 4.85531 197.932C5.21637 199.913 7.38276 204.184 9.04556 205.602C10.7131 207.019 12.2809 207.232 12.9222 206.777C13.5636 206.322 14.395 205.512 14.1717 204.213C14.0054 203.236 12.9412 201.866 12.908 198.918C12.8747 195.969 13.3356 194.021 13.3356 194.021C13.3356 194.021 15.8915 192.04 15.54 191.02C15.1884 190.001 13.4686 188.39 12.2239 188.726C11.3212 188.973 10.1097 188.314 9.04556 186.839C7.98137 185.36 8.20941 185.484 8.32818 184.465C8.44695 183.445 9.2926 183.218 8.85077 182.711H8.84127Z" fill="#455A64"/>
<path d="M10.6609 193.206C10.6419 193.144 11.3783 193.011 12.1574 193.409C12.946 193.803 13.2691 194.471 13.2073 194.495C13.1456 194.538 12.7608 193.983 12.0434 193.632C11.3355 193.263 10.6609 193.281 10.6609 193.206Z" fill="#263238"/>
<path d="M10.8081 195.917C10.7986 195.851 11.2832 195.732 11.8818 195.846C12.4804 195.955 12.8937 196.239 12.8605 196.296C12.8272 196.358 12.3949 196.192 11.8343 196.092C11.2784 195.988 10.8128 195.993 10.8033 195.922L10.8081 195.917Z" fill="#263238"/>
<path d="M2.54637 192.258L2.36108 187.655L3.73408 183.464C4.22342 183.014 5.2496 182.815 6.25203 182.729L6.53708 182.857C6.53708 182.857 4.90279 185.498 5.11657 188.773C5.33036 192.049 5.92897 196.68 6.50857 198.263C7.08342 199.847 8.44692 202.539 10.4565 204.502C11.649 205.663 12.9792 206.004 13.4591 206.322C13.2785 206.502 13.0932 206.659 12.9175 206.782C12.2808 207.237 10.7083 207.024 9.04077 205.606C7.37323 204.189 5.21159 199.913 4.85053 197.936C4.48946 195.955 5.07382 195.685 4.59398 194.737C4.27567 194.111 3.34451 193.172 2.54162 192.258H2.54637Z" fill="#E0E0E0"/>
<path d="M3.73407 183.464C3.96686 183.256 4.31842 183.099 4.727 182.986C4.4372 183.663 4.12839 186.707 4.13789 188.129C4.14739 189.413 4.2044 192.466 4.54171 194.642C3.99062 193.68 2.2138 192.106 1.52968 190.921C0.826554 189.698 -0.280393 185.138 0.0711698 184.503C0.427483 183.867 2.60337 184.503 3.73882 183.469L3.73407 183.464Z" fill="#263238"/>
<path d="M10.8319 198.439C10.8224 198.373 11.2975 198.268 11.8866 198.306C12.4757 198.344 12.9318 198.51 12.9175 198.576C12.9033 198.643 12.4377 198.591 11.8724 198.553C11.307 198.515 10.8414 198.505 10.8319 198.439Z" fill="#263238"/>
<path d="M10.314 192.291C10.257 192.315 10.0432 191.433 10.39 190.409C10.7273 189.38 11.4257 188.802 11.459 188.854C11.516 188.901 10.9364 189.522 10.6276 190.489C10.2997 191.447 10.3948 192.291 10.3188 192.296L10.314 192.291Z" fill="#263238"/>
<path d="M23.0985 130.624C23.0985 130.624 25.987 133.032 27.6783 134.274C29.3696 135.516 39.5222 142.944 39.5222 142.944L32.0824 150.723C32.0824 150.723 23.9157 142.162 23.1745 141.351C21.9963 140.071 19.6827 137.379 19.6827 137.379L16.7181 133.037L23.1033 130.624H23.0985Z" fill="#263238"/>
<path d="M25.7403 132.682C25.7403 132.682 25.4743 128.714 24.2865 127.738C23.0988 126.761 23.4314 124.519 22.752 124.258C22.0727 123.998 17.7019 125.723 16.5854 126.59C15.469 127.458 14.0912 129.553 13.2171 130.16C12.3429 130.767 11.9914 130.226 10.0768 130.857C8.16218 131.487 4.21898 134.222 3.04552 136.062C1.87206 137.901 1.87681 139.484 2.41841 140.053C2.96 140.622 3.88167 141.328 5.13589 140.93C6.08131 140.627 7.29277 139.385 10.2193 138.944C13.1458 138.503 15.1412 138.683 15.1412 138.683C15.1412 138.683 17.4596 140.935 18.424 140.442C19.3884 139.949 20.7472 138.029 20.2388 136.848C19.8683 135.99 20.3528 134.701 21.6736 133.445C22.9943 132.189 22.904 132.431 23.9302 132.407C24.9564 132.383 25.3032 133.189 25.7403 132.677V132.682Z" fill="#455A64"/>
<path d="M15.5732 135.933C15.6302 135.905 15.8677 136.611 15.5732 137.441C15.2929 138.27 14.6705 138.687 14.642 138.63C14.5898 138.578 15.0839 138.118 15.3404 137.36C15.6064 136.606 15.4972 135.943 15.5732 135.933Z" fill="#263238"/>
<path d="M12.908 136.455C12.9698 136.436 13.1551 136.9 13.1265 137.507C13.1028 138.114 12.8795 138.564 12.8177 138.536C12.7512 138.512 12.8605 138.057 12.8795 137.498C12.908 136.933 12.8367 136.474 12.908 136.455Z" fill="#263238"/>
<path d="M15.3927 127.785L19.9345 126.965L24.2863 127.737C24.7994 128.159 25.1414 129.145 25.3647 130.126L25.2745 130.43C25.2745 130.43 22.424 129.183 19.2029 129.851C15.9818 130.515 11.4685 131.752 9.97675 132.544C8.48498 133.336 6.00029 135.052 4.33749 137.313C3.35407 138.649 3.19729 140.015 2.9455 140.531C2.74121 140.38 2.56068 140.214 2.4134 140.062C1.87181 139.493 1.86705 137.915 3.04051 136.071C4.21397 134.227 8.15717 131.496 10.0718 130.866C11.9864 130.235 12.3379 130.776 13.2121 130.169C13.7917 129.766 14.5898 128.714 15.388 127.799L15.3927 127.785Z" fill="#E0E0E0"/>
<path d="M24.2863 127.737C24.5286 127.936 24.7281 128.263 24.8992 128.647C24.1866 128.458 21.1223 128.572 19.7113 128.78C18.438 128.965 15.4165 129.448 13.3024 130.079C14.1765 129.401 15.4973 127.424 16.5805 126.585C17.6969 125.718 22.0724 123.992 22.747 124.253C23.4264 124.514 23.0939 126.756 24.2816 127.732L24.2863 127.737Z" fill="#263238"/>
<path d="M10.4091 136.829C10.4756 136.81 10.6419 137.265 10.6846 137.853C10.7274 138.441 10.6276 138.915 10.5611 138.91C10.4898 138.905 10.4803 138.441 10.4376 137.872C10.3996 137.308 10.3378 136.843 10.4091 136.829Z" fill="#263238"/>
<path d="M16.4378 135.464C16.4093 135.407 17.255 135.075 18.3192 135.279C19.3881 135.469 20.058 136.08 20.0105 136.118C19.9677 136.18 19.2741 135.696 18.2717 135.521C17.274 135.331 16.4521 135.54 16.4378 135.464Z" fill="#263238"/>
<path d="M63.1387 125.05C63.0864 125.059 62.9772 124.073 62.5116 122.561C62.3928 122.182 62.2598 121.769 62.0793 121.343C61.9225 120.907 61.6992 120.461 61.4807 119.987C61.0056 119.058 60.4165 118.067 59.6848 117.105C58.9484 116.147 58.1456 115.318 57.3712 114.616C56.9721 114.28 56.6015 113.948 56.2167 113.678C55.8509 113.388 55.4851 113.151 55.1525 112.938C53.8128 112.09 52.8911 111.725 52.9149 111.672C52.9196 111.658 53.1524 111.744 53.5657 111.919C53.7748 112.004 54.0266 112.113 54.3021 112.265C54.5824 112.417 54.9102 112.568 55.2475 112.786C55.5896 112.995 55.9649 113.227 56.3402 113.512C56.7298 113.777 57.1146 114.104 57.5232 114.446C58.3166 115.147 59.1337 115.986 59.8796 116.958C60.616 117.934 61.2099 118.944 61.6802 119.892C61.8987 120.376 62.1173 120.831 62.2693 121.276C62.4451 121.712 62.5686 122.134 62.6779 122.518C62.8014 122.897 62.8631 123.258 62.9344 123.566C63.0104 123.874 63.0484 124.144 63.0722 124.367C63.1292 124.808 63.1529 125.054 63.1387 125.059V125.05Z" fill="#263238"/>
<path d="M60.5399 145.561C60.4734 145.556 60.844 141.228 61.3713 135.905C61.8987 130.577 62.3833 126.263 62.4498 126.272C62.5163 126.277 62.1457 130.6 61.6184 135.928C61.091 141.257 60.6065 145.57 60.5399 145.561Z" fill="#263238"/>
<path d="M67.8515 111.577C67.8848 111.577 67.9085 112.037 67.8753 112.782C67.842 113.526 67.728 114.55 67.4952 115.664C67.2577 116.778 66.9441 117.759 66.6733 118.451C66.4025 119.143 66.1935 119.555 66.165 119.541C66.1317 119.527 66.2837 119.096 66.5118 118.389C66.7351 117.688 67.0201 116.707 67.2577 115.607C67.4904 114.507 67.6282 113.497 67.709 112.763C67.7897 112.028 67.823 111.573 67.861 111.573L67.8515 111.577Z" fill="#263238"/>
<path d="M17.5543 173.657L23.8682 181.924L25.4075 180.89L18.837 172.263L17.5543 173.657Z" fill="#455A64"/>
<path d="M36.9425 141.062L29.7355 148.263L30.7474 149.329L38.1682 141.958L36.9425 141.062Z" fill="#455A64"/>
<g opacity="0.3">
<path d="M40.767 141.105L57.3807 146.661C57.3807 146.661 56.174 153.6 56.2167 153.506C56.2547 153.416 59.2715 146.988 59.2715 146.988L61.6849 147.713L62.008 146.874L57.6562 145.604L57.699 145.148L40.8715 139.977L40.767 141.1V141.105Z" fill="black"/>
</g>
<g opacity="0.3">
<path d="M62.35 127.396C62.35 127.396 64.925 124.011 65.4285 122.907C65.9369 121.802 66.9916 118.778 67.2054 119.19C67.4192 119.608 66.0652 124.101 65.1863 125.234C64.3073 126.367 63.0769 127.998 63.0769 127.998L65.4143 127.761C65.4143 127.761 64.3073 129.709 63.5567 129.828C62.8061 129.946 61.129 140.825 61.129 140.825L62.35 127.401V127.396Z" fill="black"/>
</g>
<path d="M41.2135 27.6124C40.9569 27.6645 39.6885 28.4846 38.1207 30.4376C38.1207 30.4376 35.7025 30.9164 35.2559 32.1252C34.8093 33.3339 35.1657 33.6468 36.2394 33.3339C37.313 33.0211 39.1516 32.1252 40.1826 31.9024C41.2135 31.6796 44.7719 29.4042 44.7719 29.4042C44.7719 29.4042 43.2754 27.2047 41.2135 27.6076V27.6124Z" fill="#AE7461"/>
<path d="M46.7341 23.4029L47.2567 23.2891C52.5254 22.123 57.8083 25.1947 59.3951 30.3427C60.8726 35.1304 62.5639 40.4158 62.9867 43.0609C63.8181 48.2421 58.882 50.5317 58.882 50.5317L60.502 55.9783L55.5992 59.9744L46.3588 54.67L41.1233 36.0974C39.3893 30.5797 41.1613 24.9766 46.7341 23.4029Z" fill="#AE7461"/>
<path d="M58.8915 50.5317C58.8915 50.5317 55.5089 51.4892 51.3567 50.0103C51.3567 50.0103 53.9934 53.6129 59.3001 51.9253L58.8915 50.5269V50.5317Z" fill="#6F4439"/>
<path d="M58.7822 35.775C58.8867 36.1779 58.6302 36.6046 58.2074 36.7183C57.7845 36.8369 57.357 36.6046 57.2524 36.1969C57.1479 35.794 57.4045 35.3674 57.8273 35.2536C58.2501 35.1351 58.6777 35.3674 58.7822 35.775Z" fill="#263238"/>
<path d="M58.8202 33.2484C58.749 33.3717 58.0648 33.0683 57.2287 33.2484C56.3925 33.4238 55.8747 33.9879 55.7654 33.9026C55.7132 33.8694 55.7654 33.6656 55.9935 33.4096C56.212 33.1584 56.6206 32.874 57.1384 32.7602C57.6563 32.6464 58.1361 32.7412 58.4307 32.8834C58.73 33.0209 58.8582 33.1868 58.8202 33.2437V33.2484Z" fill="#263238"/>
<path d="M51.3946 37.5763C51.4992 37.9792 51.2426 38.4058 50.8198 38.5196C50.397 38.6381 49.9694 38.4058 49.8649 37.9982C49.7604 37.5953 50.0169 37.1686 50.4397 37.0549C50.8625 36.9363 51.2901 37.1686 51.3946 37.5763Z" fill="#263238"/>
<path d="M50.6582 35.2156C50.5822 35.3389 49.8981 35.0355 49.0667 35.2204C48.2306 35.3958 47.7127 35.9599 47.6034 35.8745C47.5512 35.8413 47.6034 35.6375 47.8315 35.3815C48.05 35.1303 48.4586 34.8459 48.9764 34.7321C49.4943 34.6183 49.9741 34.7132 50.2687 34.8554C50.568 34.9976 50.6962 35.1587 50.6582 35.2156Z" fill="#263238"/>
<path d="M55.0528 40.7191C55.0385 40.6717 55.5374 40.4679 56.3545 40.174C56.5635 40.1028 56.7536 40.0175 56.7583 39.8658C56.7726 39.6999 56.6348 39.4913 56.478 39.2685C56.1645 38.7993 55.8367 38.3063 55.4898 37.7896C54.1026 35.6801 53.0527 33.9262 53.1382 33.8693C53.2237 33.8124 54.4162 35.481 55.8034 37.5905C56.1407 38.1119 56.4638 38.6096 56.7678 39.0837C56.9008 39.3065 57.1004 39.553 57.0624 39.8943C57.0386 40.0649 56.9103 40.2166 56.7821 40.283C56.6538 40.3541 56.535 40.3825 56.4305 40.411C55.5944 40.6432 55.0718 40.7617 55.0575 40.7143L55.0528 40.7191Z" fill="#263238"/>
<path d="M51.0526 32.8975C50.9243 33.1061 50.2117 32.8217 49.3138 32.7316C48.4206 32.6226 47.651 32.7411 47.5845 32.5088C47.556 32.3998 47.727 32.2149 48.0643 32.068C48.3969 31.9163 48.8957 31.8168 49.4326 31.8784C49.9694 31.94 50.4255 32.1438 50.7058 32.3666C50.9908 32.5847 51.1096 32.8027 51.0526 32.9023V32.8975Z" fill="#263238"/>
<path d="M58.0981 29.8071C57.965 30.0346 57.2334 29.9919 56.402 30.1626C55.5659 30.3143 54.9007 30.6271 54.6965 30.466C54.6062 30.3854 54.6727 30.1721 54.9388 29.9256C55.2001 29.6791 55.6751 29.4231 56.2452 29.3141C56.8153 29.2051 57.3474 29.2667 57.68 29.3947C58.0173 29.5227 58.1551 29.698 58.0981 29.8071Z" fill="#263238"/>
<path d="M58.3261 27.9725C58.3261 27.9725 56.1408 24.896 54.3259 24.4694C52.131 23.9479 51.7557 26.3133 49.7509 26.1996C47.7413 26.0906 45.6461 25.5881 44.0356 27.4747C42.273 29.5368 43.513 30.4374 43.9168 32.8692C45.5511 42.7291 44.3777 45.8766 42.8526 41.4018C42.6864 40.9135 41.1993 40.8187 40.52 38.7425C39.6411 36.0452 38.7907 32.727 38.976 30.6365C39.128 28.8731 39.8168 27.5269 41.2278 25.9009C43.4512 23.3317 47.1046 22.4784 49.6463 22.1798C52.188 21.8812 57.6135 23.673 58.3309 27.9725H58.3261Z" fill="#263238"/>
<path d="M43.1662 41.1791C42.9476 40.3495 42.0782 39.8518 41.2611 40.1125C40.2682 40.4301 39.2705 41.2549 39.8026 43.3265C40.7433 47.0049 44.2494 45.3032 44.2256 45.1941C44.2114 45.123 43.5748 42.7102 43.1662 41.1744V41.1791Z" fill="#AE7461"/>
<path d="M43.0712 44.0183C43.0712 44.0183 43.0189 44.08 42.9239 44.1558C42.8289 44.2317 42.6578 44.3122 42.4488 44.2885C42.0212 44.2459 41.5366 43.7102 41.3513 43.0561C41.2563 42.7242 41.2468 42.3877 41.2943 42.0938C41.3371 41.7951 41.4654 41.5629 41.6507 41.4775C41.8359 41.3827 42.0022 41.4633 42.0735 41.5581C42.1495 41.6482 42.1447 41.7288 42.1637 41.7288C42.178 41.7335 42.2255 41.6482 42.159 41.5012C42.1257 41.4301 42.0592 41.3543 41.9547 41.3069C41.8502 41.2595 41.7077 41.2547 41.5746 41.3069C41.2943 41.3969 41.1043 41.724 41.052 42.0464C40.9808 42.3735 40.9855 42.7527 41.0901 43.1272C41.3038 43.8619 41.8597 44.4592 42.4345 44.4782C42.7101 44.4782 42.9049 44.3454 42.9951 44.2317C43.0854 44.1131 43.0854 44.0231 43.0712 44.0231V44.0183Z" fill="#6F4439"/>
<path d="M39.5746 35.4573C39.2183 34.3007 38.9142 33.2151 38.6909 32.0111C38.6909 32.0111 49.6226 25.8534 56.7821 24.9243C56.7821 24.9243 58.0601 26.081 58.7252 28.6834C58.7252 28.6834 57.4092 27.0717 51.9553 28.8825C46.8481 30.5748 39.5746 35.4573 39.5746 35.4573Z" fill="#FFE05F"/>
<path d="M38.4153 31.8453C37.9307 32.4568 36.9236 32.5611 36.325 32.0633C35.7264 31.5609 35.6551 30.5512 36.1777 29.9729C35.1087 29.3851 34.4769 28.1289 34.5719 26.9201C34.6669 25.7066 35.4603 24.5926 36.5435 24.038C37.6267 23.4834 38.9617 23.4834 40.0781 23.9764C40.1969 22.8577 41.4226 21.9902 42.5201 22.2414C42.0212 21.1843 42.4298 19.857 43.2707 19.0417C44.1116 18.2264 45.2898 17.8519 46.4538 17.7192C47.2472 17.6291 48.0833 17.6433 48.8149 17.9657C49.5466 18.2927 50.1547 18.9848 50.1927 19.7812C50.872 18.9848 51.6939 18.2738 52.6821 17.923C53.6703 17.5722 54.8438 17.6338 55.6847 18.2596C56.5256 18.8853 56.9151 20.1225 56.4163 21.0421C56.9864 20.6439 57.832 20.7056 58.3356 21.1891C58.8392 21.6678 58.9342 22.5116 58.5589 23.0947C59.4853 23.4786 59.8606 24.7253 59.4426 25.6355C59.0245 26.5456 57.9983 27.0813 56.9911 27.1002C55.9887 27.1192 55.0195 26.6878 54.2071 26.1C53.58 27.2756 52.4303 28.1621 51.1286 28.4607C49.8269 28.7594 48.4016 28.4702 47.3232 27.6833C46.4585 28.3896 45.8742 29.3851 45.0285 30.1198C44.1876 30.8546 42.8669 31.2765 41.969 30.6128C41.8264 31.3855 41.2848 32.0681 40.5675 32.3904C39.8501 32.7128 39.0852 32.253 38.4106 31.8453" fill="#263238"/>
<path d="M42.9239 29.2713C42.9239 29.2713 42.7101 29.423 42.273 29.4467C41.8502 29.4704 41.1898 29.3471 40.6625 28.8209H40.8335C40.5675 29.1433 40.1684 29.4087 39.7076 29.5415C39.1992 29.6932 38.6624 29.6505 38.2348 29.4751C37.8072 29.2997 37.4937 29.0106 37.2894 28.7404C36.876 28.181 36.8903 27.7212 36.9093 27.7259C36.9521 27.7117 37.0091 28.1383 37.4224 28.6313C37.6314 28.8683 37.9307 29.1196 38.3156 29.2618C38.7004 29.4087 39.1755 29.4372 39.6363 29.3045C40.0544 29.1859 40.4107 28.9489 40.6577 28.6693L40.7432 28.5697L40.8288 28.6645C41.2801 29.1433 41.8739 29.295 42.273 29.3092C42.6768 29.3282 42.9144 29.2428 42.9239 29.276V29.2713Z" fill="#455A64"/>
<path d="M58.7252 28.6836C58.7252 28.6836 58.7632 28.7547 58.8155 28.8969C58.8725 29.0676 58.9485 29.2761 59.034 29.5274C59.2241 30.1152 59.4806 30.9068 59.7894 31.8643C60.4165 33.8411 61.2669 36.5762 62.1933 39.6005C62.4784 40.5439 62.7587 41.4635 63.02 42.3215V42.331C63.267 43.5682 63.191 44.7722 62.9107 45.7866C62.6447 46.8106 62.1838 47.6401 61.723 48.2611C61.2574 48.8821 60.7918 49.2992 60.4593 49.5552C60.293 49.6879 60.1505 49.7685 60.0602 49.8301C59.9652 49.887 59.9177 49.9155 59.9129 49.9107C59.8749 49.8681 60.7158 49.4177 61.6042 48.1758C62.0366 47.5548 62.4736 46.7394 62.7159 45.7392C62.9772 44.7485 63.0342 43.5777 62.7919 42.3831V42.3926C62.5306 41.5346 62.2503 40.615 61.9605 39.6716C61.0341 36.6473 60.2122 33.9027 59.6279 31.9165C59.3476 30.9495 59.1195 30.1531 58.9485 29.5558C58.8772 29.2998 58.8202 29.0865 58.7775 28.9111C58.7395 28.7642 58.7252 28.6836 58.7347 28.6836H58.7252Z" fill="#6F4439"/>
<path d="M55.9982 42.3545C55.4471 42.2265 53.7891 41.999 53.2237 41.9848C53.0194 41.98 52.8009 41.9848 52.6346 42.108C52.4826 42.2171 52.4113 42.4067 52.3733 42.5868C52.2213 43.3215 52.5729 44.1321 53.2142 44.5256C53.219 44.5256 53.2285 44.5351 53.2332 44.5351C54.6775 45.4025 56.4448 44.0326 56.0077 42.4067L55.9935 42.3498L55.9982 42.3545Z" fill="#6F4439"/>
<path d="M55.3901 44.5304C55.3901 44.5304 55.3046 44.6205 55.1098 44.7106C54.915 44.8006 54.6157 44.9096 54.2214 44.9239C53.8366 44.9381 53.3377 44.8528 52.9149 44.5162C52.5063 44.1891 52.1833 43.6155 52.2498 42.9851C52.2878 42.677 52.4161 42.3783 52.6441 42.1697C52.8722 41.9517 53.1952 41.8948 53.4518 41.909C53.9744 41.9517 54.3972 42.0512 54.7725 42.1081C55.5136 42.2409 55.9745 42.3357 55.9697 42.3688C55.965 42.402 55.4994 42.3688 54.7487 42.2788C54.3782 42.2456 53.9173 42.1603 53.447 42.1318C53.2142 42.1318 52.9767 42.1745 52.8104 42.3404C52.6346 42.5016 52.5254 42.7481 52.4968 43.0088C52.4398 43.535 52.7106 44.0422 53.0622 44.3361C53.4185 44.6347 53.8603 44.739 54.2214 44.7437C54.9578 44.7437 55.3759 44.4783 55.3901 44.5257V44.5304Z" fill="#263238"/>
<g opacity="0.3">
<path d="M33.2321 33.2105C33.0801 32.1866 32.0064 31.613 31.0847 31.1342C28.1345 29.6078 25.493 27.4889 23.3646 24.9434L21.6021 27.6264C21.9821 30.2999 22.3622 32.9735 22.7423 35.6422C22.9275 36.9506 23.1698 38.3727 24.1533 39.2591C24.8896 39.9228 25.9301 40.1645 26.923 40.1171C27.9159 40.0744 28.8756 39.7711 29.821 39.4772C28.8898 38.676 28.144 37.6616 27.6594 36.5334C27.5216 36.2111 27.4028 35.8224 27.5786 35.5143C27.8542 35.026 28.5715 35.1208 29.1179 35.2535C30.0015 35.4621 30.9517 35.5854 31.8021 35.2772C32.6573 34.9691 33.3651 34.1064 33.2321 33.2105Z" fill="black"/>
</g>
<path d="M36.8903 73.3277L35.5648 66.6723L38.3108 50.8018L45.3326 54.5134C45.3326 54.5134 44.8907 65.3687 45.3326 65.6626C45.7744 65.9565 42.5961 73.3277 42.5961 73.3277H36.8903Z" fill="#AE7461"/>
<path d="M14.9556 24.5784C14.9556 24.5784 16.7324 26.6168 17.5211 26.2849C18.3097 25.9579 22.3907 23.564 24.234 25.4506C26.0773 27.3373 28.3815 30.556 29.3697 31.4756C30.3578 32.3952 32.0016 31.6083 32.3294 32.4616C32.6573 33.3148 31.4078 34.3672 29.2366 33.9074C27.0655 33.4476 25.0226 32.727 25.0226 32.727C25.0226 32.727 17.6493 34.3672 16.2668 34.4999C14.8843 34.6326 14.224 33.2532 14.5565 32.6607C14.8843 32.0681 16.5329 32.3999 16.9937 31.8074C17.4546 31.2149 15.578 31.6747 14.4758 31.0869C13.3736 30.4943 12.9127 29.6411 13.4401 29.1149C13.9674 28.5887 16.1386 29.314 16.5994 29.1149C17.0602 28.9158 16.7989 28.3944 15.8108 27.8682C14.8226 27.342 13.1788 26.0953 13.7061 25.2421C14.2335 24.3888 14.6753 24.2798 14.9556 24.5832V24.5784Z" fill="#AE7461"/>
<path d="M24.5665 29.4658C24.633 30.0299 25.6212 37.0597 26.4764 38.5055C27.3315 39.9513 36.6147 47.8297 38.9188 51.7073C41.223 55.5801 40.6956 60.6381 40.3678 62.8707C40.04 65.1034 35.7595 67.6348 35.7595 67.6348C35.7595 67.6348 19.2361 45.6634 17.5923 43.1653C15.9485 40.6719 17.0649 31.542 18.3144 29.7691C19.5639 27.9963 24.5665 29.4658 24.5665 29.4658Z" fill="#AE7461"/>
<path d="M38.9188 60.4674C38.9473 60.4674 38.9806 60.7424 38.9188 61.1785C38.8571 61.6146 38.6766 62.2119 38.3202 62.7949C37.9639 63.3733 37.5126 63.8046 37.1468 64.0559C36.781 64.3118 36.5244 64.4066 36.5102 64.3782C36.4674 64.3166 37.4318 63.7809 38.1064 62.6622C38.8001 61.553 38.8381 60.4532 38.9188 60.4627V60.4674Z" fill="#6F4439"/>
<path d="M41.9071 61.3916C41.8691 61.3916 41.7979 60.7659 41.6221 59.7657C41.4463 58.7655 41.1423 57.3955 40.6529 55.926C40.1636 54.4565 39.584 53.1767 39.1231 52.2713C38.6623 51.3659 38.344 50.8207 38.3773 50.8018C38.3915 50.7923 38.4865 50.9203 38.6481 51.1573C38.8096 51.3943 39.0281 51.7451 39.2799 52.1907C39.7835 53.0819 40.3964 54.3665 40.8905 55.8502C41.3845 57.3339 41.6648 58.7276 41.7979 59.742C41.8644 60.2492 41.9024 60.6616 41.9119 60.946C41.9261 61.2305 41.9261 61.3916 41.9119 61.3916H41.9071Z" fill="#6F4439"/>
<path d="M18.704 26.887C18.7373 26.9012 18.6185 27.3184 18.4332 27.9915C18.2479 28.6646 18.0057 29.5984 17.7871 30.6413C17.5733 31.6842 17.4213 32.637 17.3263 33.3291C17.2265 34.0212 17.1743 34.4525 17.1362 34.4478C17.103 34.4478 17.0982 34.0117 17.1505 33.3101C17.2028 32.6085 17.3263 31.6415 17.5448 30.5892C17.7634 29.5368 18.0342 28.603 18.2669 27.9346C18.495 27.271 18.6755 26.8728 18.704 26.8822V26.887Z" fill="#6F4439"/>
<path d="M23.5262 27.5838C23.5879 27.5601 24.1248 28.8921 24.5476 30.6081C24.9752 32.3241 25.1272 33.751 25.0654 33.7604C24.9942 33.7699 24.7329 32.3715 24.3053 30.6698C23.8825 28.968 23.4549 27.6075 23.5214 27.5838H23.5262Z" fill="#6F4439"/>
<path d="M22.2007 40.6908C22.2244 40.6766 22.3575 40.8425 22.4287 41.1696C22.5 41.4872 22.4905 41.9802 22.2434 42.44C21.9916 42.8998 21.5878 43.1747 21.279 43.2885C20.9655 43.407 20.7564 43.388 20.7517 43.3596C20.7469 43.3217 20.937 43.2743 21.203 43.1273C21.4691 42.9851 21.8064 42.7196 22.0249 42.3215C22.2387 41.9233 22.2814 41.4919 22.2529 41.1933C22.2292 40.8899 22.1627 40.705 22.2007 40.6908Z" fill="#6F4439"/>
<path d="M41.2753 72.1333C46.1022 67.8007 44.3254 54.0538 44.1163 53.7646C43.9025 53.4802 46.6058 54.0206 46.6058 54.0206C46.6058 54.0206 55.3426 56.1395 59.148 56.3907C60.692 56.495 60.369 53.684 60.369 53.684C60.369 53.684 66.8871 57.3625 69.8327 61.8089C70.2602 62.4536 71.1201 66.1416 71.4099 67.2034C72.4599 71.0288 72.5549 86.8804 72.935 89.2601C73.315 91.6397 74.365 98.3946 75.6999 101.059C77.0349 103.723 74.46 107.34 74.46 107.34C74.7688 105.875 74.6785 104.841 74.6785 104.841C73.5336 100.561 40.3489 110.781 39.8263 110.402C39.3037 110.023 42.7908 102.201 42.7908 102.201C42.7908 102.201 41.7409 99.3474 41.1708 97.4418C40.6007 95.5362 42.7908 94.0146 42.7908 94.0146C42.7908 94.0146 37.7359 77.4567 36.496 73.271C36.496 73.271 39.356 73.8398 41.2658 72.1286L41.2753 72.1333Z" fill="#FFE05F"/>
<path d="M68.2838 96.6503C68.2838 96.6503 67.9988 96.565 67.5 96.3706C67.0011 96.181 66.2885 95.8776 65.4238 95.4747C63.6945 94.6689 61.3524 93.4079 59.034 91.6303C56.7155 89.848 54.8865 87.9281 53.6275 86.4966C53.0004 85.776 52.5063 85.1835 52.1785 84.7616C51.8459 84.3445 51.6701 84.1074 51.6844 84.098C51.6986 84.0885 51.8982 84.3018 52.2497 84.7C52.6013 85.1029 53.1144 85.6765 53.7558 86.378C55.0432 87.7764 56.8866 89.6631 59.186 91.4312C61.4901 93.1946 63.799 94.4698 65.4999 95.3135C66.355 95.7307 67.0534 96.0625 67.538 96.2758C68.0226 96.4986 68.2886 96.6266 68.2838 96.6408V96.6503Z" fill="#263238"/>
<path d="M38.6339 73.6976C40.3204 78.272 42.045 82.8322 43.741 87.4018C44.1734 88.5632 44.6105 89.7246 45.0285 90.8907C45.4419 92.0473 45.7839 93.2182 45.6224 94.4554C45.4751 95.5884 45.2946 96.5791 45.5701 97.7168C45.8409 98.8307 46.2447 99.8973 46.487 101.021C47.0666 103.718 47.1094 106.515 46.6343 109.231C46.5678 109.605 47.1427 109.762 47.2092 109.387C47.6082 107.107 47.6652 104.794 47.3517 102.5C47.1902 101.329 46.9336 100.172 46.5868 99.044C46.183 97.7357 45.8694 96.6028 46.1022 95.2281C46.2875 94.1236 46.3065 93.1092 46.0167 92.0142C45.7079 90.8386 45.2233 89.6961 44.8005 88.5585C43.9263 86.2025 43.0474 83.8513 42.1638 81.4954C41.1708 78.8456 40.1827 76.1957 39.204 73.5412C39.071 73.1856 38.5009 73.3373 38.6291 73.6976H38.6339Z" fill="white"/>
<path d="M41.4274 79.5567C41.4274 79.5567 57.3902 62.136 58.7062 62.0649C60.0222 61.9938 71.8898 70.2609 71.8898 70.2609L72.3791 77.7222L59.9842 69.7253L43.7933 86.7098L41.4226 79.5614L41.4274 79.5567Z" fill="white"/>
<path d="M50.4016 63.8852C50.4016 64.6958 49.8933 65.3499 49.2662 65.3499C48.6391 65.3499 48.1307 64.6958 48.1307 63.8852C48.1307 63.0746 48.6391 62.4204 49.2662 62.4204C49.8933 62.4204 50.4016 63.0746 50.4016 63.8852Z" fill="white"/>
<path d="M45.7459 54.3855C45.7459 54.3855 45.7744 54.4708 45.8029 54.6414C45.8314 54.8405 45.8694 55.087 45.9121 55.3857C45.9881 56.0351 46.0927 56.9784 46.1402 58.154C46.2399 60.4957 46.1164 63.7571 45.3705 67.2649C45.19 68.1418 44.9762 68.9904 44.7482 69.8057C44.5154 70.6163 44.2398 71.3984 43.8693 72.0905C43.5035 72.7826 43.0284 73.3894 42.482 73.8302C41.9404 74.2758 41.3513 74.5839 40.7907 74.783C39.6648 75.1812 38.6909 75.2239 38.0352 75.2049C37.7074 75.2002 37.4509 75.1717 37.2799 75.148C37.1088 75.1243 37.0186 75.1054 37.0186 75.1006C37.0186 75.0769 37.3844 75.1196 38.0352 75.1101C38.6813 75.1006 39.641 75.0248 40.729 74.6171C41.2706 74.4133 41.8312 74.1052 42.349 73.6738C42.8668 73.2424 43.3134 72.6594 43.665 71.9815C44.0166 71.3036 44.2826 70.5404 44.5106 69.7346C44.7339 68.9287 44.9477 68.085 45.1282 67.2127C45.8646 63.7286 46.0167 60.4862 45.9644 58.154C45.9406 56.9879 45.8646 56.0446 45.8171 55.3904C45.7934 55.087 45.7696 54.8405 45.7554 54.6414C45.7411 54.4708 45.7411 54.3807 45.7506 54.376L45.7459 54.3855Z" fill="#263238"/>
<path d="M70.4883 64.1553C70.4883 64.1553 70.3268 64.0368 70.0702 63.7903C69.8089 63.5438 69.4479 63.1788 69.006 62.7189C68.0939 61.7519 66.9062 60.4957 65.5902 59.1021C64.2457 57.699 62.9677 56.4997 61.9938 55.6843C61.0199 54.869 60.3785 54.4139 60.4022 54.3807C60.4118 54.3665 60.5828 54.4661 60.8821 54.6604C61.1861 54.85 61.6042 55.1534 62.1078 55.5468C63.1197 56.329 64.4262 57.5236 65.7755 58.9267C67.1199 60.3346 68.2887 61.6476 69.1391 62.5957C69.5381 63.0365 69.8754 63.4158 70.1462 63.7191C70.3838 63.9846 70.5073 64.1363 70.4978 64.1505L70.4883 64.1553Z" fill="#263238"/>
<g opacity="0.3">
<path d="M70.0844 94.6734C69.8611 93.9339 69.215 93.384 68.5071 93.0759C67.7992 92.763 67.0248 92.654 66.2647 92.5118C61.3618 91.6017 56.7203 89.3263 52.9956 86.0176C56.0979 89.5586 63.0911 94.5501 67.4382 96.3704C68.0178 96.6122 68.6781 96.8397 69.2625 96.6122C69.9846 96.3325 70.3077 95.4129 70.0844 94.6734Z" fill="black"/>
</g>
<path d="M74.2984 104.325C74.2984 104.325 74.1797 104.287 73.9706 104.192C73.7569 104.116 73.429 104.026 72.9967 103.969C72.1321 103.846 70.8588 103.879 69.3053 104.031C66.1888 104.339 61.932 105.173 57.2667 106.24C52.6013 107.311 48.4016 108.387 45.3611 109.146C43.8598 109.52 42.6341 109.823 41.7552 110.042C41.3466 110.136 41.0188 110.212 40.7717 110.269C40.5485 110.321 40.4249 110.34 40.4249 110.331C40.4249 110.321 40.5389 110.283 40.7575 110.217C41.0045 110.146 41.3276 110.056 41.7314 109.942C42.6056 109.705 43.8218 109.378 45.3183 108.97C48.3493 108.164 52.5443 107.06 57.2144 105.989C61.8797 104.922 66.1555 104.111 69.2911 103.846C70.8588 103.718 72.1416 103.713 73.0157 103.865C73.4528 103.936 73.7806 104.04 73.9944 104.135C74.2034 104.244 74.3079 104.306 74.3032 104.311L74.2984 104.325Z" fill="#263238"/>
</g>
<defs>
<clipPath id="clip0_64_2131">
<rect width="180" height="207" fill="white"/>
</clipPath>
</defs>
</svg>
