<svg width="70" height="170" viewBox="0 0 70 170" fill="none" xmlns="http://www.w3.org/2000/svg">
<path d="M50.8468 168.888C49.2472 169.108 31.2485 170.679 28.8651 169.598C27.4626 168.961 26.6835 168.274 26.3489 167.633C26.0968 167.143 26.1105 166.68 26.3168 166.282C26.7705 165.411 27.678 165.123 28.5947 164.958C30.5335 164.624 32.2476 163.973 34.1405 163.483C36.0243 162.993 38.1326 162.581 39.7322 161.445C40.2364 161.088 40.186 160.062 40.3784 159.37C40.6993 158.207 41.4464 158.184 42.6564 158.042C44.0864 158.674 45.1955 159.192 46.3459 159.334C47.3864 159.466 48.3718 159.123 49.3847 159.178C50.4297 159.242 51.4334 159.508 51.7955 160.529C52.4693 162.43 52.9872 164.065 53.1568 165.375C53.418 167.363 52.8726 168.599 50.8514 168.879L50.8468 168.888Z" fill="#07374A"/>
<path d="M50.8468 168.888C49.2472 169.108 31.2485 170.679 28.8651 169.598C27.4626 168.961 26.6835 168.274 26.3489 167.633C27.701 168.063 31.6151 168.842 40.8918 168.031C53.0605 166.969 52.6297 166.392 53.1522 165.384C53.4134 167.372 52.868 168.608 50.8468 168.888Z" fill="#EEE0DF"/>
<path d="M41.2173 157.341C41.2173 157.341 41.121 158.903 41.7169 159.599C42.134 160.085 44.5127 160.337 45.136 160.552C46.126 160.895 46.534 162.182 47.5744 162.311C49.4673 162.549 51.1906 161.303 50.6314 159.448C49.8614 156.888 49.6644 156.443 49.0181 155.198C48.0785 155.111 41.419 157.112 41.2127 157.337L41.2173 157.341Z" fill="#D69C4B"/>
<path d="M42.6243 160.007C43.9626 159.819 45.2918 159.691 46.5843 159.421C47.2305 159.288 47.8676 159.123 48.4818 158.885C49.0868 158.651 49.6918 158.321 50.1226 157.808C49.9805 158.12 49.7009 158.34 49.4534 158.569C49.1968 158.793 48.908 158.995 48.6009 159.15C47.9914 159.471 47.3268 159.672 46.6622 159.819C45.3284 160.098 43.9626 160.153 42.6151 160.002L42.6243 160.007Z" fill="#020400"/>
<path d="M48.7889 156.714C49.0685 156.952 49.1922 157.268 49.2885 157.579C49.371 157.895 49.4122 158.216 49.3435 158.569C49.096 158.303 48.9814 157.996 48.8897 157.689C48.8072 157.378 48.7614 157.071 48.7889 156.718V156.714Z" fill="#020400"/>
<path d="M47.5927 157.456C47.7944 157.726 47.9548 157.955 48.0831 158.239C48.1427 158.381 48.1977 158.527 48.2206 158.692C48.2481 158.853 48.2573 159.031 48.1839 159.191C47.9869 158.917 47.831 158.688 47.7027 158.404C47.6431 158.262 47.5881 158.115 47.5606 157.955C47.5331 157.799 47.5194 157.62 47.5881 157.456H47.5927Z" fill="#020400"/>
<path d="M45.883 157.68C46.1397 157.964 46.2451 158.303 46.3276 158.633C46.4009 158.967 46.433 159.301 46.3689 159.672C46.2359 159.535 46.1534 159.375 46.0801 159.214C46.0068 159.054 45.961 158.889 45.9197 158.724C45.851 158.39 45.8189 158.056 45.8784 157.685L45.883 157.68Z" fill="#020400"/>
<path d="M44.3156 157.749L44.2926 157.717V157.708H44.2835C44.2468 157.717 44.3339 157.689 44.3247 157.698L44.3385 157.717L44.3797 157.781L44.4576 157.909C44.5035 157.996 44.5447 158.083 44.5814 158.17C44.6593 158.344 44.7097 158.527 44.7601 158.706C44.8426 159.072 44.8976 159.448 44.8243 159.851C44.5768 159.526 44.4531 159.169 44.3614 158.802C44.3201 158.619 44.2835 158.436 44.2743 158.243C44.2651 158.147 44.2651 158.051 44.2651 157.955L44.2743 157.808L44.2835 157.735V157.717C44.2743 157.726 44.3614 157.698 44.3247 157.708V157.721L44.3156 157.758V157.749Z" fill="#020400"/>
<path d="M43.1286 157.73C43.3898 158.051 43.5273 158.408 43.6373 158.77C43.7336 159.137 43.8023 159.512 43.7519 159.924C43.4906 159.604 43.3531 159.247 43.2431 158.885C43.1469 158.518 43.0781 158.143 43.1286 157.73Z" fill="#020400"/>
<path d="M41.9873 157.712C42.111 157.895 42.1798 158.092 42.2348 158.285C42.2943 158.477 42.3356 158.674 42.3768 158.862L42.4777 159.434C42.5143 159.622 42.5373 159.805 42.6243 160.007C42.4135 159.929 42.2714 159.727 42.1752 159.54C42.0743 159.347 42.0193 159.146 41.9735 158.944C41.9002 158.537 41.8956 158.134 41.9873 157.712Z" fill="#020400"/>
<path d="M58.5285 101.797L33.9389 127.103C32.8526 128.22 32.4814 129.842 32.9672 131.321L41.5839 157.497C41.5839 157.497 49.0226 158.527 49.073 155.99C49.1235 153.453 44.7739 132.255 44.7739 132.255L71.7422 111.581L58.5285 101.802V101.797Z" fill="#C9C2BD"/>
<path d="M42.1567 130.098C42.6976 130.332 43.1559 130.662 43.5959 131.014C44.0267 131.376 44.4392 131.765 44.7738 132.251C44.233 132.017 43.7747 131.687 43.3347 131.335C42.9038 130.968 42.4913 130.584 42.1567 130.098Z" fill="#010400"/>
<path d="M55.9893 99.9287L47.1847 112.249L61.7413 120.233L75.4134 108.732L55.9893 99.9287Z" fill="#07374A"/>
<path d="M55.9893 99.9286L83.4067 89.5042L100.273 111.91L84.2547 121.185L55.9893 99.9286Z" fill="#0A4A63"/>
<path d="M46.1077 49.5285C48.8622 47.2017 50.4527 45.5391 54.0093 45.246C55.6777 45.1086 57.1902 45.3513 58.721 45.7223C61.3885 46.3681 63.9827 47.3208 66.8931 47.2842C70.7385 47.2384 68.6164 42.846 74.1576 41.7788C70.3764 45.6582 73.0989 48.2781 69.1756 51.4567C66.4439 53.6735 57.5981 53.9117 54.2752 53.4811C52.6802 53.275 51.3831 52.6155 50.0585 51.9285C48.7843 51.2689 47.7531 51.1956 46.1077 49.5239V49.5285Z" fill="#0A4A63"/>
<path d="M3.31305 63.3835C3.67513 63.1178 9.52346 68.3621 10.1697 71.5179C10.7839 74.5179 21.7976 83.0782 21.7976 83.0782L30.3318 68.5179L37.3901 72.5072C37.3901 72.5072 28.6451 88.579 23.6355 90.3744C18.6305 92.1699 5.30222 75.2874 5.30222 75.2874C5.30222 75.2874 2.07097 73.8675 1.16347 71.7973C0.25597 69.727 3.31305 63.3881 3.31305 63.3881V63.3835Z" fill="#EEE0DF"/>
<mask id="mask0_64_1385" style="mask-type:luminance" maskUnits="userSpaceOnUse" x="2" y="2" width="24" height="29">
<path d="M24.7821 18.596C26.4546 10.9242 22.9723 3.65168 17.0043 2.35242C11.0362 1.05317 4.84236 6.21914 3.16989 13.8909C1.49741 21.5628 4.97967 28.8352 10.9477 30.1345C16.9158 31.4338 23.1097 26.2678 24.7821 18.596Z" fill="white"/>
</mask>
<g mask="url(#mask0_64_1385)">
<path d="M4.35352 1.771L28.7552 7.08399" stroke="#EEE0DF" stroke-width="1.03" stroke-linejoin="round"/>
<path d="M3.89514 3.87793L28.2968 9.19093" stroke="#EEE0DF" stroke-width="1.03" stroke-linejoin="round"/>
<path d="M3.43689 5.98462L27.8385 11.2976" stroke="#EEE0DF" stroke-width="1.03" stroke-linejoin="round"/>
<path d="M2.97852 8.09155L27.3802 13.4045" stroke="#EEE0DF" stroke-width="1.03" stroke-linejoin="round"/>
<path d="M2.51562 10.1985L26.9173 15.5115" stroke="#EEE0DF" stroke-width="1.03" stroke-linejoin="round"/>
<path d="M2.05725 12.3054L26.4589 17.6184" stroke="#EEE0DF" stroke-width="1.03" stroke-linejoin="round"/>
<path d="M1.599 14.4124L26.0006 19.7253" stroke="#EEE0DF" stroke-width="1.03" stroke-linejoin="round"/>
<path d="M1.14062 16.519L25.5423 21.832" stroke="#EEE0DF" stroke-width="1.03" stroke-linejoin="round"/>
<path d="M0.677734 18.6306L25.0794 23.9436" stroke="#EEE0DF" stroke-width="1.03" stroke-linejoin="round"/>
<path d="M0.21936 20.7375L24.621 26.0505" stroke="#EEE0DF" stroke-width="1.03" stroke-linejoin="round"/>
<path d="M-0.238892 22.8442L24.1628 28.1572" stroke="#EEE0DF" stroke-width="1.03" stroke-linejoin="round"/>
<path d="M-0.697266 24.9512L23.7044 30.2642" stroke="#EEE0DF" stroke-width="1.03" stroke-linejoin="round"/>
<path d="M28.8239 3.8689L22.4255 33.214" stroke="#EEE0DF" stroke-width="1.03" stroke-linejoin="round"/>
<path d="M26.7156 3.41089L20.3173 32.756" stroke="#EEE0DF" stroke-width="1.03" stroke-linejoin="round"/>
<path d="M24.6073 2.94824L18.209 32.298" stroke="#EEE0DF" stroke-width="1.03" stroke-linejoin="round"/>
<path d="M22.4989 2.49023L16.1006 31.84" stroke="#EEE0DF" stroke-width="1.03" stroke-linejoin="round"/>
<path d="M20.3906 2.03223L13.9923 31.3774" stroke="#EEE0DF" stroke-width="1.03" stroke-linejoin="round"/>
<path d="M18.2822 1.57422L11.8839 30.9194" stroke="#EEE0DF" stroke-width="1.03" stroke-linejoin="round"/>
<path d="M16.174 1.11621L9.77563 30.4614" stroke="#EEE0DF" stroke-width="1.03" stroke-linejoin="round"/>
<path d="M14.0657 0.653564L7.66736 30.0033" stroke="#EEE0DF" stroke-width="1.03" stroke-linejoin="round"/>
<path d="M11.9573 0.195557L5.55896 29.5407" stroke="#EEE0DF" stroke-width="1.03" stroke-linejoin="round"/>
<path d="M9.84889 -0.262451L3.45056 29.0827" stroke="#EEE0DF" stroke-width="1.03" stroke-linejoin="round"/>
<path d="M7.74061 -0.720459L1.34229 28.6247" stroke="#EEE0DF" stroke-width="1.03" stroke-linejoin="round"/>
<path d="M5.63228 -1.18311L-0.77063 28.1666" stroke="#EEE0DF" stroke-width="1.03" stroke-linejoin="round"/>
</g>
<path d="M24.7821 18.596C26.4546 10.9242 22.9723 3.65168 17.0043 2.35242C11.0362 1.05317 4.84236 6.21914 3.16989 13.8909C1.49741 21.5628 4.97967 28.8352 10.9477 30.1345C16.9158 31.4338 23.1097 26.2678 24.7821 18.596Z" stroke="#D34D3C" stroke-width="2.76" stroke-miterlimit="10"/>
<path d="M11.4439 30.136L5.03638 59.5224" stroke="#D34D3C" stroke-width="3.05" stroke-miterlimit="10"/>
<path d="M7.09396 56.344L4.47864 55.7747L0.303039 74.9285L2.91836 75.4979L7.09396 56.344Z" fill="#F3B969"/>
<path d="M7.84598 46.6248L4.48181 55.7759L7.09889 56.3439L7.84598 46.6248Z" fill="#D34D3C"/>
<path d="M2.58888 65.394C2.58888 65.394 7.98346 67.6704 8.89555 69.2505C9.80304 70.8307 7.51138 75.1544 7.51138 75.1544C7.51138 75.1544 4.93096 70.7986 5.1143 69.5574C5.29763 68.3162 1.32847 67.107 2.58888 65.394Z" fill="#EEE0DF"/>
<path d="M2.95103 62.8384C2.95103 62.8384 -0.000633523 63.0582 1.48437 65.4811C2.46978 67.0888 2.95103 62.8384 2.95103 62.8384Z" fill="#EEE0DF"/>
<path d="M1.54392 66.5026C1.54392 66.5026 3.66142 68.6095 3.77142 69.2782C3.88142 69.9469 1.37892 69.8644 0.526419 68.7744C-0.326081 67.6797 -0.248164 65.6095 1.54392 66.5026Z" fill="#EEE0DF"/>
<path d="M1.31471 68.5085C1.31471 68.5085 3.59263 69.878 3.82638 70.4322C4.06471 70.9864 1.88763 71.449 0.915963 70.6841C-0.0557027 69.9192 -0.587369 69.0444 1.31471 68.5085Z" fill="#EEE0DF"/>
<path d="M1.1222 70.5881C1.1222 70.5881 3.10678 71.7194 3.3222 72.1912C3.53761 72.663 1.67678 73.1026 0.82428 72.4706C-0.0236358 71.8339 -0.504886 71.092 1.11761 70.5881H1.1222Z" fill="#EEE0DF"/>
<path d="M0.526489 68.7744C0.998572 68.9943 1.38816 69.2508 1.79607 69.4477C1.99774 69.5485 2.1994 69.6355 2.40565 69.6859C2.61649 69.7362 2.8319 69.75 3.09774 69.7088C2.93732 69.9195 2.65774 70.0431 2.37815 70.0523C2.09399 70.0706 1.82816 69.9836 1.58982 69.8691C1.35607 69.7454 1.14066 69.5943 0.961906 69.4111C0.783156 69.2279 0.627323 69.0217 0.526489 68.7744Z" fill="#020400"/>
<path d="M0.916016 70.6889C1.2231 70.6248 1.4706 70.6889 1.69977 70.7851C1.92435 70.895 2.13976 71.037 2.29101 71.3118C1.98393 71.3805 1.73643 71.3118 1.50727 71.2156C1.28268 71.1057 1.07185 70.9637 0.916016 70.6889Z" fill="#020400"/>
<path d="M4.76599 66.4062C5.51766 66.5757 6.20057 66.9009 6.85141 67.2856C7.17224 67.4826 7.48849 67.6979 7.77724 67.9452C8.06599 68.1925 8.35016 68.4673 8.53807 68.8063C8.20807 68.6047 7.88724 68.4307 7.56641 68.2475C7.24557 68.0688 6.92932 67.8765 6.60849 67.6933C5.97599 67.304 5.34807 66.9146 4.76599 66.4108V66.4062Z" fill="#020400"/>
<path d="M4.4635 68.4812C4.86683 68.8797 5.20142 69.3331 5.49933 69.8094C5.646 70.0476 5.79267 70.2904 5.91183 70.556C6.02183 70.8217 6.11808 71.0827 6.21433 71.3438C6.39308 71.8659 6.56725 72.3789 6.80558 72.8553C7.04392 73.327 7.37392 73.753 7.86892 74.0324C7.30517 73.9408 6.81017 73.524 6.49392 73.043C6.16392 72.5621 5.96225 72.0217 5.76975 71.5041C5.591 70.9682 5.41683 70.4919 5.16933 69.9927L4.46808 68.4858L4.4635 68.4812Z" fill="#020400"/>
<path d="M68.6577 57.2874C68.6577 57.2874 91.1022 64.4095 102.226 64.9271C108.368 64.4691 119.688 58.3637 120.683 58.4095C121.678 58.4553 119.826 60.2965 118.492 61.1851C113.666 64.4004 114.441 66.9744 110.178 68.7469C105.916 70.5195 92.1197 69.6355 87.7197 68.7882C83.3197 67.9408 65.5502 64.7897 65.5502 64.7897L68.6531 57.2874H68.6577Z" fill="#EEE0DF"/>
<path d="M39.6772 57.2874C39.6772 57.2874 29.9055 64.0523 29.2226 67.8905C28.5397 71.7287 37.546 75.4523 37.546 75.4523C37.546 75.4523 38.5222 88.5654 48.9218 88.4967C55.1184 93.5074 54.958 101.376 54.958 101.376C54.958 101.376 69.1755 108.141 91.9043 100.794C85.0659 87.1364 68.378 66.3286 68.378 66.3286L71.0547 66.7683C71.0547 66.7683 76.4401 60.3973 72.7872 57.4569C66.3018 52.24 50.0585 51.9377 50.0585 51.9377L39.6772 57.292V57.2874Z" fill="#D34D3C"/>
<path d="M48.9218 88.4966C50.5397 88.6752 52.1485 88.9317 53.7481 89.2111C55.3522 89.4905 56.9426 89.8157 58.5331 90.1775C60.1143 90.5577 61.7001 90.9424 63.2493 91.4554C64.7847 91.9775 66.3751 92.4859 67.686 93.4706C67.3239 93.2829 66.9893 93.0584 66.6043 92.9256L66.0451 92.6966C65.8572 92.6279 65.6601 92.5684 65.4676 92.5042C64.7068 92.2294 63.9231 92.0187 63.1439 91.8035C61.581 91.3775 60.0043 91.0065 58.4231 90.6401C56.8464 90.2645 55.256 89.9302 53.6747 89.5683L51.296 89.0416L48.9172 88.4966H48.9218Z" fill="#020400"/>
<path d="M37.6193 71.0967C37.5322 71.3623 37.5276 71.6371 37.5231 71.9119C37.5185 72.1868 37.5322 72.4616 37.5414 72.7318C37.5689 73.2814 37.6193 73.8265 37.6697 74.3761L37.8164 76.0295C37.8622 76.5837 37.9081 77.1379 37.9035 77.7059C37.5231 76.6433 37.3076 75.5394 37.1976 74.4219C37.1564 73.8631 37.1243 73.2952 37.1747 72.7318C37.1931 72.4478 37.2343 72.1684 37.2939 71.8891C37.3626 71.6142 37.436 71.3257 37.6193 71.1013V71.0967Z" fill="#020400"/>
<path d="M68.378 66.3287C67.2459 66.1546 66.1597 65.8432 65.0826 65.4951C64.0101 65.1378 62.9513 64.7439 61.9338 64.2126C63.0659 64.3867 64.1522 64.6981 65.2293 65.0462C66.3018 65.4081 67.3605 65.7974 68.378 66.3287Z" fill="#020400"/>
<path d="M40.0622 60.9057C40.053 62.0049 40.1355 63.1088 40.3922 64.1668C40.5205 64.6935 40.6809 65.2156 40.9284 65.6874C41.1713 66.1637 41.4967 66.5897 41.9184 66.8874C42.3401 67.1805 42.8488 67.3225 43.3622 67.3317C43.8663 67.3317 44.3751 67.1622 44.8517 66.9332C45.3284 66.7042 45.773 66.3973 46.1947 66.063C46.6163 65.7286 47.0196 65.3622 47.3955 64.9729C48.9263 63.434 50.1592 61.5927 51.0896 59.6278C51.5617 58.6431 51.9192 57.608 52.1392 56.5408C52.2401 56.0049 52.3226 55.4645 52.3226 54.9194C52.3226 54.3744 52.2676 53.8248 52.1301 53.2935C52.5105 54.3377 52.5196 55.4828 52.3684 56.582C52.1896 57.6813 51.8596 58.753 51.4196 59.7744C50.9888 60.8004 50.4388 61.7759 49.8201 62.7011C49.2013 63.6263 48.5092 64.5057 47.7301 65.3072C47.3359 65.7057 46.9188 66.0813 46.4696 66.4202C46.0251 66.7637 45.553 67.0798 45.0351 67.3225C44.5217 67.5653 43.9534 67.7485 43.353 67.7439C42.7663 67.7393 42.1705 67.5424 41.703 67.1851C41.2309 66.8279 40.8963 66.3378 40.658 65.8248C40.4151 65.3118 40.2684 64.7668 40.163 64.2172C39.9797 63.1179 39.943 62.0049 40.0622 60.9057Z" fill="#020400"/>
<path d="M35.236 43.5056L40.0622 60.9057C40.0622 60.9057 41.836 71.5088 47.6522 62.4446C52.4693 54.9331 51.3418 53.3484 51.3418 53.3484L49.1372 48.1316L35.2405 43.5056H35.236Z" fill="#C9C2BD"/>
<path d="M52.3638 42.7956C52.813 48.8598 49.5084 55.4231 44.8563 55.7712C42.2118 55.9682 39.0676 53.1605 37.2709 50.6369C35.9005 48.7178 35.5155 47.6827 35.5155 44.046C35.5155 37.9681 37.5413 33.507 42.1934 33.1635C46.8455 32.82 51.9147 36.7315 52.3684 42.7956H52.3638Z" fill="#EEE0DF"/>
<path d="M39.008 52.7528C39.8972 53.5406 40.8413 54.2597 41.868 54.8001C42.8901 55.336 44.0176 55.7116 45.1359 55.5009C46.268 55.3269 47.3405 54.823 48.248 54.0948C49.1509 53.362 49.9255 52.4505 50.5213 51.4246C50.0584 52.5192 49.348 53.5223 48.4497 54.333C47.5559 55.1528 46.4284 55.7437 45.2092 55.9498C44.6042 56.0597 43.9442 56.0505 43.3484 55.8811C42.7434 55.7299 42.1843 55.4689 41.6618 55.1574C40.6305 54.5162 39.7276 53.7009 39.0034 52.7528H39.008Z" fill="#020400"/>
<path d="M37.7705 35.724C37.7705 35.724 37.4268 40.9179 35.7401 42.9652C34.0534 45.0126 31.7434 35.2202 37.1014 33.1133L37.7705 35.724Z" fill="#0A4A63"/>
<path d="M36.8951 36.2231C36.9318 35.0872 36.1113 31.959 40.2134 29.5498C46.323 25.959 53.3355 32.9575 55.0909 35.6827C56.2872 37.5376 56.1497 40.2033 58.1022 40.1987C58.9684 40.1987 60.3709 39.443 61.8376 37.817C60.8247 40.4415 59.4451 42.0262 56.8372 42.2002C54.7151 42.3422 53.8167 39.6262 51.7405 39.8598C50.7963 39.9651 48.9172 41.4079 47.9501 41.3209C41.5747 40.7712 42.6655 37.3911 39.2005 36.0811C38.6459 35.8704 36.8951 36.2185 36.8951 36.2185V36.2231Z" fill="#0A4A63"/>
<path d="M39.9751 42.4156C39.9751 42.4156 42.7205 39.7728 44.3522 43.2171Z" fill="#020400"/>
<path d="M51.1996 42.53C49.0684 40.0659 47.3496 43.1804 47.3496 43.1804Z" fill="#020400"/>
<path d="M46.2404 43.0752L47.7254 48.2416L46.0754 48.3653L46.2404 43.0752Z" fill="#D34D3C"/>
<path d="M42.4135 51.2278C42.4135 51.2278 46.8776 48.3056 47.6018 51.6217Z" fill="#F7FBFA"/>
<path d="M39.8009 40.4415C40.0988 40.0522 40.4838 39.7362 40.9376 39.4935C41.3913 39.2599 41.9688 39.1637 42.5142 39.3194C43.0551 39.4706 43.5547 39.7728 43.8572 40.2125C43.9901 40.4415 44.1138 40.6706 44.1963 40.9133C44.2651 41.1606 44.3155 41.4125 44.3201 41.6736L44.2467 41.7103C44.0267 41.5499 43.8572 41.3851 43.7013 41.211C43.5272 41.0553 43.3713 40.895 43.2247 40.7393C42.9038 40.469 42.6747 40.1209 42.3034 39.9469C41.9459 39.782 41.5105 39.7637 41.0842 39.8828C40.6534 39.9927 40.2363 40.2217 39.8605 40.5011L39.8009 40.4461V40.4415Z" fill="#0A4A63"/>
<path d="M51.0667 41.2888C50.8513 40.9499 50.5626 40.643 50.2234 40.5147C49.8934 40.3728 49.5588 40.414 49.2472 40.5697C48.9309 40.7254 48.6926 41.0231 48.3717 41.2247C48.2159 41.3392 48.0417 41.4308 47.8676 41.5453C47.6934 41.6552 47.5055 41.756 47.2763 41.8338L47.2122 41.7834C47.3084 41.3254 47.5284 40.9361 47.8263 40.6063C47.9638 40.4323 48.1701 40.3086 48.3626 40.1941C48.4588 40.1392 48.5826 40.1025 48.688 40.0567C48.798 40.0109 48.9034 39.9651 49.0272 39.9468C49.2563 39.8781 49.5084 39.8552 49.7559 39.8827C50.0034 39.9239 50.2417 40.0109 50.4297 40.1575C50.8101 40.446 51.0301 40.8445 51.1401 41.2567L51.0622 41.2842L51.0667 41.2888Z" fill="#0A4A63"/>
<path d="M36.3634 43.2765C36.4872 44.9437 36.5422 46.2948 35.7813 46.3544C35.0205 46.4093 33.7326 45.1498 33.6089 43.4826C33.4851 41.8154 34.003 40.4185 34.7638 40.3635C35.5247 40.3085 36.2443 41.6139 36.368 43.2765H36.3634Z" fill="#EEE0DF"/>
<path d="M35.3871 41.2842C35.1763 41.2017 34.938 41.1559 34.7821 41.2521C34.6217 41.3392 34.5392 41.5224 34.475 41.7147C34.365 42.104 34.3513 42.5621 34.3513 42.988C34.3513 43.4185 34.4246 43.817 34.5896 44.2247C34.7455 44.6277 34.9655 45.0445 35.0709 45.5025C34.7821 45.1407 34.4842 44.8018 34.2505 44.3895C34.1313 44.1834 34.035 43.959 33.9709 43.7163C33.9159 43.4781 33.8838 43.2353 33.8884 42.9926C33.8884 42.7544 33.9067 42.5163 33.9525 42.2872C33.9892 42.0537 34.0442 41.8109 34.1588 41.5865C34.2642 41.3666 34.4384 41.1239 34.718 41.0506C34.9975 40.9819 35.2359 41.1285 35.3963 41.2842H35.3871Z" fill="#020400"/>
<path d="M34.1633 42.4429C34.3329 42.4429 34.4612 42.5528 34.5575 42.6398C34.6583 42.736 34.7271 42.8413 34.7958 42.9513C34.8508 43.0658 34.9012 43.1757 34.9333 43.2994C34.97 43.423 34.97 43.5375 35.0112 43.6887C34.8417 43.6887 34.7133 43.5788 34.6171 43.4917C34.5162 43.3955 34.4475 43.2902 34.3787 43.1803C34.3237 43.0658 34.2733 42.9559 34.2412 42.8322C34.2046 42.7085 34.2046 42.594 34.1633 42.4429Z" fill="#020400"/>
</svg>
